<svg id="svg" version="1.1" xmlns="http://www.w3.org/2000/svg" xmlns:xlink="http://www.w3.org/1999/xlink" width="400" height="400" viewBox="0, 0, 400,400"><g id="svgg"><path id="path0" d="M179.200 29.781 C 179.200 30.608,180.065 32.400,180.464 32.400 C 180.649 32.400,180.800 32.760,180.800 33.200 C 180.800 33.640,180.980 34.000,181.200 34.000 C 181.420 34.000,181.600 34.320,181.600 34.712 C 181.600 35.103,181.960 35.683,182.400 36.000 C 182.840 36.317,183.200 36.897,183.200 37.288 C 183.200 37.680,183.336 38.000,183.502 38.000 C 183.669 38.000,184.060 38.585,184.372 39.300 C 184.684 40.015,185.268 40.891,185.670 41.247 C 186.071 41.603,186.400 42.188,186.400 42.547 C 186.400 42.906,186.580 43.200,186.800 43.200 C 187.020 43.200,187.200 43.560,187.200 44.000 C 187.200 44.440,187.380 44.800,187.600 44.800 C 187.820 44.800,188.000 45.120,188.000 45.512 C 188.000 45.903,188.360 46.483,188.800 46.800 C 189.240 47.117,189.600 47.697,189.600 48.088 C 189.600 48.480,189.780 48.800,190.000 48.800 C 190.220 48.800,190.400 49.036,190.400 49.325 C 190.400 49.613,190.760 50.236,191.200 50.708 C 191.640 51.180,192.000 51.810,192.000 52.107 C 192.000 52.404,192.630 53.693,193.400 54.972 C 194.170 56.251,194.800 57.455,194.800 57.648 C 194.800 57.842,194.980 58.000,195.200 58.000 C 195.420 58.000,195.600 58.236,195.600 58.525 C 195.600 58.813,195.960 59.436,196.400 59.908 C 196.840 60.380,197.200 61.044,197.200 61.383 C 197.200 61.722,197.380 62.000,197.600 62.000 C 197.820 62.000,198.000 62.360,198.000 62.800 C 198.000 63.240,198.180 63.600,198.400 63.600 C 198.620 63.600,198.800 63.920,198.800 64.312 C 198.800 64.703,199.160 65.283,199.600 65.600 C 200.040 65.917,200.400 66.497,200.400 66.888 C 200.400 67.280,200.580 67.600,200.800 67.600 C 201.020 67.600,201.200 67.960,201.200 68.400 C 201.200 68.840,201.380 69.200,201.600 69.200 C 201.820 69.200,202.000 69.470,202.000 69.800 C 202.000 70.130,202.180 70.400,202.400 70.400 C 202.620 70.400,202.800 70.670,202.800 71.000 C 202.800 71.330,202.980 71.600,203.200 71.600 C 203.420 71.600,203.600 71.960,203.600 72.400 C 203.600 72.840,203.780 73.200,204.000 73.200 C 204.220 73.200,204.400 73.430,204.400 73.712 C 204.400 73.993,204.760 74.483,205.200 74.800 C 205.640 75.117,206.000 75.697,206.000 76.088 C 206.000 76.480,206.180 76.800,206.400 76.800 C 206.620 76.800,206.800 77.160,206.800 77.600 C 206.800 78.040,206.980 78.400,207.200 78.400 C 207.420 78.400,207.600 78.668,207.600 78.995 C 207.600 79.323,207.915 79.959,208.300 80.408 C 208.685 80.858,209.015 81.355,209.034 81.513 C 209.123 82.276,209.985 83.890,210.558 84.365 C 210.911 84.658,211.200 85.236,211.200 85.649 C 211.200 86.062,211.336 86.400,211.502 86.400 C 211.669 86.400,212.064 86.985,212.380 87.700 C 212.697 88.415,213.280 89.349,213.678 89.775 C 214.075 90.202,214.400 90.677,214.400 90.832 C 214.400 90.987,214.808 91.216,215.308 91.341 C 216.210 91.568,239.200 129.171,239.200 130.420 C 239.200 130.704,238.902 131.266,238.538 131.669 C 238.142 132.106,238.062 132.400,238.338 132.400 C 238.592 132.400,238.800 132.636,238.800 132.925 C 238.800 133.213,239.160 133.836,239.600 134.308 C 240.040 134.780,240.400 135.444,240.400 135.783 C 240.400 136.122,240.580 136.400,240.800 136.400 C 241.020 136.400,241.200 136.670,241.200 137.000 C 241.200 137.330,241.380 137.600,241.600 137.600 C 241.820 137.600,242.000 137.881,242.000 138.224 C 242.000 138.593,242.188 138.731,242.462 138.562 C 242.756 138.380,242.815 138.453,242.623 138.763 C 242.452 139.039,242.642 139.604,243.061 140.067 C 243.467 140.516,243.800 141.000,243.800 141.142 C 243.800 141.284,243.917 141.361,244.059 141.314 C 244.201 141.266,244.217 141.612,244.095 142.081 C 243.913 142.775,244.005 142.884,244.584 142.662 C 245.161 142.440,245.254 142.549,245.075 143.234 C 244.954 143.699,244.956 143.978,245.080 143.854 C 245.204 143.730,245.687 143.838,246.153 144.094 C 247.400 144.779,248.351 144.543,252.266 142.577 C 254.210 141.601,256.079 140.802,256.420 140.801 C 257.236 140.800,259.193 139.883,259.197 139.500 C 259.199 139.335,259.560 139.200,260.000 139.200 C 260.440 139.200,260.800 139.020,260.800 138.800 C 260.800 138.580,261.160 138.400,261.600 138.400 C 262.040 138.400,262.400 138.220,262.400 138.000 C 262.400 137.780,262.735 137.600,263.145 137.600 C 263.554 137.600,265.289 136.880,267.000 136.000 C 268.711 135.120,270.331 134.400,270.600 134.400 C 270.869 134.400,272.489 133.680,274.200 132.800 C 275.911 131.920,277.520 131.200,277.777 131.200 C 278.599 131.200,282.321 129.183,282.537 128.621 C 282.826 127.866,282.387 126.361,281.955 126.628 C 281.760 126.749,281.600 126.477,281.600 126.024 C 281.600 125.571,281.420 125.200,281.200 125.200 C 280.980 125.200,280.800 124.930,280.800 124.600 C 280.800 124.270,280.665 123.999,280.500 123.999 C 280.335 123.998,279.750 123.008,279.200 121.800 C 278.650 120.592,278.065 119.602,277.900 119.601 C 277.735 119.601,277.600 119.330,277.600 119.000 C 277.600 118.670,277.420 118.400,277.200 118.400 C 276.980 118.400,276.800 118.040,276.800 117.600 C 276.800 117.160,276.620 116.800,276.400 116.800 C 276.180 116.800,276.000 116.080,276.000 115.200 C 276.000 114.320,276.180 113.600,276.400 113.600 C 276.620 113.600,276.800 113.240,276.800 112.800 C 276.800 112.360,276.980 112.000,277.200 112.000 C 277.420 112.000,277.600 111.640,277.600 111.200 C 277.600 110.760,277.780 110.400,278.000 110.400 C 278.220 110.400,278.400 110.040,278.400 109.600 C 278.400 109.160,278.580 108.800,278.800 108.800 C 279.020 108.800,279.200 108.440,279.200 108.000 C 279.200 107.560,279.346 107.200,279.525 107.200 C 279.704 107.200,280.098 106.570,280.400 105.800 C 280.702 105.030,281.096 104.400,281.275 104.400 C 281.454 104.400,281.600 104.130,281.600 103.800 C 281.600 103.470,281.780 103.200,282.000 103.200 C 282.220 103.200,282.400 102.840,282.400 102.400 C 282.400 101.960,282.546 101.600,282.725 101.600 C 282.904 101.600,283.298 100.970,283.600 100.200 C 283.902 99.430,284.306 98.800,284.498 98.800 C 284.690 98.800,284.745 98.635,284.620 98.432 C 284.495 98.230,284.632 97.825,284.925 97.532 C 285.494 96.963,285.600 96.703,285.600 95.875 C 285.600 95.587,285.967 94.957,286.416 94.475 C 286.864 93.994,287.128 93.600,287.003 93.600 C 286.877 93.600,287.209 92.821,287.741 91.868 C 289.665 88.422,291.024 85.520,290.900 85.122 C 290.845 84.945,290.980 84.800,291.200 84.800 C 291.420 84.800,291.600 84.440,291.600 84.000 C 291.600 83.560,291.780 83.200,292.000 83.200 C 292.220 83.200,292.400 82.840,292.400 82.400 C 292.400 81.960,292.580 81.600,292.800 81.600 C 293.020 81.600,293.200 81.240,293.200 80.800 C 293.200 80.360,293.380 80.000,293.600 80.000 C 293.820 80.000,294.000 79.640,294.000 79.200 C 294.000 78.760,294.180 78.400,294.400 78.400 C 294.620 78.400,294.800 78.040,294.800 77.600 C 294.800 77.160,294.980 76.800,295.200 76.800 C 295.420 76.800,295.600 76.440,295.600 76.000 C 295.600 75.560,295.780 75.200,296.000 75.200 C 296.220 75.200,296.400 74.840,296.400 74.400 C 296.400 73.960,296.580 73.600,296.800 73.600 C 297.020 73.600,297.200 73.330,297.200 73.000 C 297.200 72.670,297.380 72.400,297.600 72.400 C 297.820 72.400,298.000 72.040,298.000 71.600 C 298.000 71.160,298.180 70.800,298.400 70.800 C 298.620 70.800,298.800 70.440,298.800 70.000 C 298.800 69.560,298.980 69.200,299.200 69.200 C 299.420 69.200,299.600 68.840,299.600 68.400 C 299.600 67.960,299.780 67.600,300.000 67.600 C 300.220 67.600,300.400 67.240,300.400 66.800 C 300.400 66.360,300.580 66.000,300.800 66.000 C 301.020 66.000,301.200 65.680,301.200 65.288 C 301.200 64.897,301.550 64.324,301.979 64.015 C 302.407 63.707,302.675 63.322,302.575 63.159 C 302.475 62.997,302.619 62.621,302.896 62.323 C 303.173 62.025,303.459 61.517,303.532 61.194 C 303.605 60.872,303.875 60.474,304.132 60.310 C 304.389 60.146,304.449 60.009,304.265 60.006 C 304.081 60.003,304.846 58.302,305.965 56.226 C 307.084 54.150,308.000 52.170,308.000 51.826 C 308.000 51.482,308.180 51.200,308.400 51.200 C 308.620 51.200,308.800 50.840,308.800 50.400 C 308.800 49.960,308.980 49.600,309.200 49.600 C 309.939 49.600,309.624 47.394,308.800 46.800 C 308.360 46.483,308.000 45.972,308.000 45.666 C 308.000 44.906,305.955 41.200,305.536 41.200 C 305.351 41.200,305.200 40.840,305.200 40.400 C 305.200 39.960,305.064 39.600,304.898 39.600 C 304.586 39.600,303.501 37.415,303.598 36.982 C 303.628 36.849,303.281 36.417,302.826 36.023 C 302.372 35.629,302.000 35.012,302.000 34.653 C 302.000 34.294,301.854 34.000,301.675 34.000 C 301.496 34.000,301.102 33.370,300.800 32.600 C 300.498 31.830,300.104 31.200,299.925 31.200 C 299.746 31.200,299.600 31.007,299.600 30.771 C 299.600 29.304,298.740 29.200,286.629 29.200 C 275.067 29.200,274.800 29.218,274.800 30.000 C 274.800 30.440,274.620 30.800,274.400 30.800 C 274.180 30.800,274.000 31.160,274.000 31.600 C 274.000 32.040,273.820 32.400,273.600 32.400 C 273.380 32.400,273.200 32.678,273.200 33.017 C 273.200 33.356,272.840 34.020,272.400 34.492 C 271.960 34.964,271.600 35.587,271.600 35.875 C 271.600 36.164,271.420 36.400,271.200 36.400 C 270.980 36.400,270.800 36.720,270.800 37.112 C 270.800 37.503,270.440 38.083,270.000 38.400 C 269.560 38.717,269.200 39.297,269.200 39.688 C 269.200 40.080,269.020 40.400,268.800 40.400 C 268.580 40.400,268.400 40.720,268.400 41.112 C 268.400 41.503,268.040 42.083,267.600 42.400 C 267.160 42.717,266.800 43.297,266.800 43.688 C 266.800 44.080,266.654 44.400,266.475 44.400 C 266.296 44.400,265.902 45.030,265.600 45.800 C 265.298 46.570,264.904 47.200,264.725 47.200 C 264.546 47.200,264.400 47.436,264.400 47.725 C 264.400 48.013,264.040 48.636,263.600 49.108 C 263.160 49.580,262.800 50.162,262.800 50.400 C 262.800 50.638,262.440 51.220,262.000 51.692 C 261.560 52.164,261.200 52.787,261.200 53.075 C 261.200 53.364,261.020 53.600,260.800 53.600 C 260.580 53.600,260.400 53.960,260.400 54.400 C 260.400 54.840,260.252 55.200,260.070 55.200 C 259.889 55.200,259.222 56.325,258.589 57.700 C 257.955 59.075,257.114 60.549,256.719 60.975 C 256.323 61.402,256.000 61.987,256.000 62.275 C 256.000 62.564,255.820 62.800,255.600 62.800 C 255.380 62.800,255.200 63.120,255.200 63.512 C 255.200 63.903,254.840 64.483,254.400 64.800 C 253.960 65.117,253.600 65.697,253.600 66.088 C 253.600 66.480,253.420 66.800,253.200 66.800 C 252.980 66.800,252.800 67.120,252.800 67.512 C 252.800 67.903,252.440 68.483,252.000 68.800 C 251.560 69.117,251.200 69.697,251.200 70.088 C 251.200 70.480,251.020 70.800,250.800 70.800 C 250.580 70.800,250.400 71.160,250.400 71.600 C 250.400 72.040,250.252 72.400,250.072 72.400 C 249.550 72.400,248.000 70.453,248.000 69.797 C 248.000 69.469,247.820 69.200,247.600 69.200 C 247.380 69.200,247.200 68.880,247.200 68.488 C 247.200 68.097,246.840 67.517,246.400 67.200 C 245.960 66.883,245.600 66.303,245.600 65.912 C 245.600 65.520,245.420 65.200,245.200 65.200 C 244.980 65.200,244.800 64.964,244.800 64.675 C 244.800 64.387,244.440 63.764,244.000 63.292 C 243.560 62.820,243.200 62.156,243.200 61.817 C 243.200 61.478,243.054 61.200,242.875 61.200 C 242.696 61.200,242.302 60.570,242.000 59.800 C 241.698 59.030,241.274 58.400,241.059 58.400 C 240.843 58.400,240.778 58.289,240.914 58.152 C 241.050 58.016,240.899 57.642,240.577 57.320 C 240.256 56.999,240.095 56.570,240.220 56.368 C 240.345 56.165,240.257 56.000,240.024 56.000 C 239.791 56.000,239.600 55.764,239.600 55.475 C 239.600 55.187,239.240 54.564,238.800 54.092 C 238.360 53.620,238.000 52.956,238.000 52.617 C 238.000 52.278,237.820 52.000,237.600 52.000 C 237.380 52.000,237.200 51.680,237.200 51.288 C 237.200 50.897,236.840 50.317,236.400 50.000 C 235.960 49.683,235.600 49.103,235.600 48.712 C 235.600 48.320,235.420 48.000,235.200 48.000 C 234.980 48.000,234.800 47.640,234.800 47.200 C 234.800 46.760,234.620 46.400,234.400 46.400 C 234.180 46.400,234.000 46.152,234.000 45.849 C 234.000 45.546,233.727 45.071,233.393 44.794 C 233.059 44.517,232.483 43.640,232.113 42.845 C 231.743 42.050,231.117 41.109,230.720 40.753 C 230.324 40.397,230.000 39.812,230.000 39.453 C 230.000 39.094,229.820 38.800,229.600 38.800 C 229.380 38.800,229.200 38.480,229.200 38.088 C 229.200 37.697,228.840 37.117,228.400 36.800 C 227.960 36.483,227.600 35.903,227.600 35.512 C 227.600 35.120,227.420 34.800,227.200 34.800 C 226.980 34.800,226.800 34.440,226.800 34.000 C 226.800 33.560,226.620 33.200,226.400 33.200 C 226.180 33.200,226.000 32.906,226.000 32.547 C 226.000 32.188,225.628 31.571,225.174 31.177 C 224.719 30.783,224.359 30.357,224.374 30.230 C 224.388 30.104,224.400 29.820,224.400 29.600 C 224.400 29.338,216.600 29.200,201.800 29.200 C 182.303 29.200,179.200 29.280,179.200 29.781 M95.200 164.771 C 95.200 164.976,94.952 165.391,94.648 165.695 C 94.344 165.999,93.611 167.271,93.019 168.524 C 92.427 169.776,91.775 170.800,91.571 170.800 C 91.367 170.800,91.200 171.078,91.200 171.418 C 91.200 172.390,89.341 174.000,88.218 174.000 C 87.658 174.000,87.200 174.158,87.200 174.351 C 87.200 174.544,81.665 174.835,74.900 174.998 C 54.231 175.498,52.212 175.552,39.422 175.958 C 32.614 176.174,26.912 176.269,26.750 176.169 C 26.588 176.069,26.342 176.170,26.204 176.393 C 26.053 176.638,23.705 176.800,20.323 176.800 C 14.049 176.800,13.954 176.838,12.504 179.987 C 12.146 180.764,11.346 182.152,10.727 183.072 C 10.107 183.992,9.600 184.915,9.600 185.123 C 9.600 185.332,9.330 185.726,9.000 186.000 C 8.670 186.274,8.400 186.836,8.400 187.249 C 8.400 187.662,8.220 188.000,8.000 188.000 C 7.780 188.000,7.600 188.320,7.600 188.712 C 7.600 189.103,7.240 189.683,6.800 190.000 C 6.360 190.317,6.000 190.897,6.000 191.288 C 6.000 191.680,5.820 192.000,5.600 192.000 C 5.380 192.000,5.200 192.242,5.200 192.538 C 5.200 192.834,4.840 193.402,4.400 193.800 C 3.566 194.555,3.254 197.200,4.000 197.200 C 4.220 197.200,4.400 197.560,4.400 198.000 C 4.400 198.440,4.580 198.800,4.800 198.800 C 5.020 198.800,5.200 199.160,5.200 199.600 C 5.200 200.040,5.380 200.400,5.600 200.400 C 5.820 200.400,6.000 200.720,6.000 201.112 C 6.000 201.503,6.360 202.083,6.800 202.400 C 7.240 202.717,7.600 203.297,7.600 203.688 C 7.600 204.080,7.780 204.400,8.000 204.400 C 8.220 204.400,8.400 204.760,8.400 205.200 C 8.400 205.640,8.560 206.000,8.757 206.000 C 8.953 206.000,9.226 206.450,9.364 207.000 C 9.502 207.550,9.792 208.000,10.008 208.000 C 10.223 208.000,10.400 208.360,10.400 208.800 C 10.400 209.240,10.580 209.600,10.800 209.600 C 11.020 209.600,11.200 209.960,11.200 210.400 C 11.200 210.840,11.380 211.200,11.600 211.200 C 11.820 211.200,12.000 211.560,12.000 212.000 C 12.000 212.440,12.168 212.800,12.373 212.800 C 12.578 212.800,12.854 213.139,12.985 213.552 C 13.719 215.865,14.182 216.000,21.347 216.000 C 25.516 216.000,28.000 216.149,28.000 216.400 C 28.000 216.661,34.200 216.800,45.800 216.800 C 57.400 216.800,63.600 216.939,63.600 217.200 C 63.600 217.420,63.853 217.600,64.163 217.600 C 64.528 217.600,64.652 217.880,64.516 218.400 C 64.401 218.840,64.148 219.200,63.953 219.200 C 63.759 219.200,63.600 219.560,63.600 220.000 C 63.600 220.440,63.465 220.800,63.299 220.800 C 63.134 220.800,62.552 221.655,62.005 222.700 C 61.459 223.745,60.778 224.844,60.493 225.142 C 59.795 225.870,58.400 228.639,58.400 229.296 C 58.400 229.586,58.040 230.083,57.600 230.400 C 57.160 230.717,56.800 231.297,56.800 231.688 C 56.800 232.080,56.620 232.400,56.400 232.400 C 56.180 232.400,56.000 232.678,56.000 233.017 C 56.000 233.356,55.640 234.020,55.200 234.492 C 54.760 234.964,54.400 235.587,54.400 235.875 C 54.400 236.164,54.220 236.400,54.000 236.400 C 53.780 236.400,53.600 236.760,53.600 237.200 C 53.600 237.640,53.420 238.000,53.200 238.000 C 52.980 238.000,52.800 238.320,52.800 238.712 C 52.800 239.103,52.440 239.683,52.000 240.000 C 51.560 240.317,51.200 240.897,51.200 241.288 C 51.200 241.680,51.020 242.000,50.800 242.000 C 50.580 242.000,50.400 242.188,50.400 242.417 C 50.400 242.646,50.040 243.220,49.600 243.692 C 49.160 244.164,48.800 244.787,48.800 245.075 C 48.800 245.364,48.620 245.600,48.400 245.600 C 48.180 245.600,48.000 245.872,48.000 246.205 C 48.000 246.867,47.283 248.260,46.510 249.103 C 46.240 249.397,45.707 250.304,45.325 251.119 C 44.943 251.933,44.396 252.840,44.110 253.134 C 43.823 253.428,43.222 254.508,42.773 255.534 C 41.471 258.509,41.087 259.200,40.732 259.200 C 40.550 259.200,40.400 260.010,40.400 261.000 C 40.400 261.990,40.580 262.800,40.800 262.800 C 41.020 262.800,41.200 263.160,41.200 263.600 C 41.200 264.040,41.380 264.400,41.600 264.400 C 41.820 264.400,42.000 264.687,42.000 265.038 C 42.000 265.744,43.227 268.123,43.700 268.333 C 43.865 268.407,44.000 268.812,44.000 269.233 C 44.000 269.655,44.168 270.000,44.374 270.000 C 44.580 270.000,44.976 270.630,45.254 271.400 C 45.533 272.170,45.905 272.800,46.080 272.800 C 46.256 272.800,46.400 273.120,46.400 273.512 C 46.400 273.903,46.760 274.483,47.200 274.800 C 47.640 275.117,48.000 275.697,48.000 276.088 C 48.000 276.480,48.180 276.800,48.400 276.800 C 48.620 276.800,48.800 277.160,48.800 277.600 C 48.800 278.040,48.980 278.400,49.200 278.400 C 49.420 278.400,49.600 278.720,49.600 279.112 C 49.600 279.503,49.960 280.083,50.400 280.400 C 50.840 280.717,51.200 281.297,51.200 281.688 C 51.200 282.080,51.380 282.400,51.600 282.400 C 51.820 282.400,52.000 282.760,52.000 283.200 C 52.000 283.640,52.135 284.001,52.300 284.003 C 52.665 284.007,53.600 285.949,53.600 286.703 C 53.600 287.002,53.780 287.136,54.000 287.000 C 54.220 286.864,54.400 287.033,54.400 287.376 C 54.400 287.719,54.580 288.000,54.800 288.000 C 55.020 288.000,55.200 288.360,55.200 288.800 C 55.200 289.240,55.346 289.600,55.525 289.600 C 55.704 289.600,56.098 290.230,56.400 291.000 C 56.702 291.770,57.096 292.400,57.275 292.400 C 57.454 292.400,57.600 292.745,57.600 293.167 C 57.600 293.588,57.753 293.993,57.939 294.067 C 58.126 294.140,58.855 295.415,59.560 296.900 C 61.056 300.053,63.600 300.637,63.600 297.829 C 63.600 297.483,63.780 297.200,64.000 297.200 C 64.220 297.200,64.400 296.840,64.400 296.400 C 64.400 295.960,64.580 295.600,64.800 295.600 C 65.020 295.600,65.200 295.280,65.200 294.888 C 65.200 294.497,65.560 293.917,66.000 293.600 C 66.440 293.283,66.800 292.703,66.800 292.312 C 66.800 291.920,66.980 291.600,67.200 291.600 C 67.420 291.600,67.600 291.412,67.600 291.183 C 67.600 290.954,67.960 290.380,68.400 289.908 C 68.840 289.436,69.200 288.813,69.200 288.525 C 69.200 288.236,69.380 288.000,69.600 288.000 C 69.820 288.000,70.000 287.640,70.000 287.200 C 70.000 286.760,70.180 286.400,70.400 286.400 C 70.620 286.400,70.800 286.130,70.800 285.800 C 70.800 285.470,70.980 285.200,71.200 285.200 C 71.420 285.200,71.600 284.930,71.600 284.600 C 71.600 284.270,71.780 284.000,72.000 284.000 C 72.220 284.000,72.400 283.640,72.400 283.200 C 72.400 282.760,72.545 282.400,72.723 282.400 C 73.041 282.400,74.641 279.124,74.447 278.870 C 74.392 278.798,74.719 278.417,75.174 278.023 C 75.628 277.629,76.000 277.012,76.000 276.653 C 76.000 276.294,76.136 276.000,76.302 276.000 C 76.469 276.000,76.860 275.415,77.172 274.700 C 77.484 273.985,78.068 273.109,78.470 272.753 C 78.871 272.397,79.200 271.812,79.200 271.453 C 79.200 271.094,79.380 270.800,79.600 270.800 C 79.820 270.800,80.000 270.480,80.000 270.088 C 80.000 269.697,80.360 269.117,80.800 268.800 C 81.240 268.483,81.600 267.903,81.600 267.512 C 81.600 267.120,81.780 266.800,82.000 266.800 C 82.220 266.800,82.400 266.480,82.400 266.088 C 82.400 265.697,82.760 265.117,83.200 264.800 C 83.640 264.483,84.000 263.903,84.000 263.512 C 84.000 263.120,84.180 262.800,84.400 262.800 C 84.620 262.800,84.800 262.480,84.800 262.088 C 84.800 261.697,85.160 261.117,85.600 260.800 C 86.040 260.483,86.400 259.903,86.400 259.512 C 86.400 259.120,86.580 258.800,86.800 258.800 C 87.020 258.800,87.200 258.564,87.200 258.275 C 87.200 257.987,87.560 257.364,88.000 256.892 C 88.440 256.420,88.800 255.756,88.800 255.417 C 88.800 255.078,88.943 254.800,89.118 254.800 C 89.293 254.800,89.770 253.990,90.178 253.000 C 90.587 252.010,91.073 251.200,91.260 251.200 C 91.447 251.200,91.600 250.840,91.600 250.400 C 91.600 249.960,91.780 249.600,92.000 249.600 C 92.220 249.600,92.400 249.280,92.400 248.888 C 92.400 248.497,92.760 247.917,93.200 247.600 C 93.640 247.283,94.000 246.703,94.000 246.312 C 94.000 245.920,94.180 245.600,94.400 245.600 C 94.620 245.600,94.800 245.280,94.800 244.888 C 94.800 244.497,95.160 243.917,95.600 243.600 C 96.040 243.283,96.400 242.703,96.400 242.312 C 96.400 241.920,96.535 241.599,96.700 241.597 C 97.082 241.593,97.999 239.638,98.003 238.820 C 98.006 238.190,98.737 236.869,104.987 226.200 C 106.920 222.900,108.815 219.660,109.199 219.000 C 109.583 218.340,110.844 216.180,112.000 214.200 C 113.157 212.220,114.515 209.880,115.018 209.000 C 119.498 201.161,120.388 199.788,121.058 199.678 C 121.850 199.547,124.400 195.818,124.400 194.791 C 124.400 194.453,124.760 193.917,125.200 193.600 C 125.640 193.283,126.000 192.703,126.000 192.312 C 126.000 191.920,126.180 191.600,126.400 191.600 C 126.620 191.600,126.800 191.280,126.800 190.888 C 126.800 190.497,127.160 189.917,127.600 189.600 C 128.040 189.283,128.400 188.703,128.400 188.312 C 128.400 187.920,128.591 187.600,128.824 187.600 C 129.057 187.600,129.143 187.431,129.015 187.225 C 128.888 187.018,129.102 186.670,129.492 186.452 C 130.258 186.022,128.460 183.600,127.374 183.600 C 127.112 183.600,126.666 183.321,126.384 182.980 C 126.101 182.639,125.100 182.010,124.159 181.581 C 123.218 181.153,122.340 180.626,122.207 180.412 C 122.075 180.197,121.299 179.716,120.483 179.344 C 119.667 178.971,118.688 178.401,118.307 178.077 C 117.574 177.455,115.778 176.458,111.716 174.420 C 110.349 173.735,109.123 172.999,108.991 172.786 C 108.859 172.573,107.982 172.047,107.041 171.619 C 106.100 171.190,105.099 170.561,104.816 170.220 C 104.534 169.879,104.054 169.600,103.751 169.600 C 103.448 169.600,103.200 169.420,103.200 169.200 C 103.200 168.980,102.880 168.800,102.488 168.800 C 102.097 168.800,101.517 168.440,101.200 168.000 C 100.883 167.560,100.303 167.200,99.912 167.200 C 99.520 167.200,99.200 167.020,99.200 166.800 C 99.200 166.580,98.917 166.400,98.571 166.400 C 97.750 166.400,96.680 165.318,96.995 164.808 C 97.139 164.574,96.975 164.512,96.598 164.656 C 96.244 164.792,96.037 165.120,96.139 165.385 C 96.241 165.650,96.096 165.867,95.817 165.867 C 95.522 165.867,95.390 165.560,95.502 165.133 C 95.607 164.730,95.582 164.400,95.447 164.400 C 95.311 164.400,95.200 164.567,95.200 164.771 M221.597 265.995 C 221.885 266.533,221.987 272.989,221.911 285.995 L 221.800 305.200 223.400 305.280 C 224.280 305.324,222.930 305.468,220.400 305.600 C 216.445 305.807,217.006 305.852,224.405 305.920 L 233.010 306.000 233.780 307.025 C 234.204 307.589,234.871 308.421,235.263 308.873 C 235.655 309.325,236.084 310.034,236.215 310.448 C 236.346 310.861,236.622 311.200,236.827 311.200 C 237.032 311.200,237.200 311.436,237.200 311.725 C 237.200 312.013,237.560 312.636,238.000 313.108 C 238.440 313.580,238.800 314.204,238.800 314.495 C 238.800 314.786,239.160 315.283,239.600 315.600 C 240.040 315.917,240.400 316.497,240.400 316.888 C 240.400 317.280,240.580 317.600,240.800 317.600 C 241.020 317.600,241.200 317.920,241.200 318.312 C 241.200 318.703,241.560 319.283,242.000 319.600 C 242.440 319.917,242.800 320.340,242.800 320.541 C 242.800 320.741,243.430 321.781,244.200 322.853 C 244.970 323.925,245.600 324.947,245.600 325.126 C 245.600 325.304,245.915 325.798,246.300 326.225 C 246.685 326.651,247.255 327.495,247.568 328.100 C 247.880 328.705,248.285 329.200,248.468 329.200 C 248.650 329.200,248.800 329.520,248.800 329.912 C 248.800 330.303,249.160 330.883,249.600 331.200 C 250.040 331.517,250.400 332.097,250.400 332.488 C 250.400 332.880,250.580 333.200,250.800 333.200 C 251.020 333.200,251.200 333.571,251.200 334.024 C 251.200 334.477,251.380 334.736,251.600 334.600 C 251.820 334.464,252.000 334.633,252.000 334.976 C 252.000 335.319,252.180 335.600,252.400 335.600 C 252.620 335.600,252.800 335.870,252.800 336.200 C 252.800 336.530,252.980 336.800,253.200 336.800 C 253.420 336.800,253.600 337.070,253.600 337.400 C 253.600 337.730,253.780 338.000,254.000 338.000 C 254.220 338.000,254.400 338.236,254.400 338.525 C 254.400 338.813,254.760 339.436,255.200 339.908 C 255.640 340.380,256.000 340.914,256.000 341.095 C 256.000 341.276,256.360 341.683,256.800 342.000 C 257.240 342.317,257.600 342.897,257.600 343.288 C 257.600 343.680,257.759 344.000,257.954 344.000 C 258.149 344.000,258.604 344.622,258.965 345.383 C 259.326 346.144,259.797 346.874,260.011 347.007 C 260.225 347.139,260.400 347.557,260.400 347.935 C 260.400 348.314,260.760 348.883,261.200 349.200 C 261.640 349.517,262.000 349.911,262.000 350.075 C 262.000 350.615,266.044 356.770,267.100 357.837 C 267.375 358.115,267.600 358.586,267.600 358.883 C 267.600 359.180,267.960 359.683,268.400 360.000 C 268.840 360.317,269.200 360.857,269.200 361.200 C 269.200 361.543,269.560 362.083,270.000 362.400 C 270.440 362.717,270.800 363.257,270.800 363.600 C 270.800 363.943,271.160 364.483,271.600 364.800 C 272.040 365.117,272.400 365.697,272.400 366.088 C 272.400 366.480,272.559 366.800,272.753 366.800 C 272.948 366.800,273.201 367.160,273.316 367.600 C 273.519 368.377,273.862 368.400,285.200 368.400 C 296.538 368.400,296.881 368.377,297.084 367.600 C 297.199 367.160,297.452 366.800,297.647 366.800 C 297.841 366.800,298.000 366.480,298.000 366.088 C 298.000 365.697,298.360 365.117,298.800 364.800 C 299.240 364.483,299.600 363.903,299.600 363.512 C 299.600 363.120,299.780 362.800,300.000 362.800 C 300.220 362.800,300.400 362.440,300.400 362.000 C 300.400 361.560,300.580 361.200,300.800 361.200 C 301.020 361.200,301.200 360.880,301.200 360.488 C 301.200 360.097,301.560 359.517,302.000 359.200 C 302.440 358.883,302.800 358.303,302.800 357.912 C 302.800 357.520,302.936 357.200,303.102 357.200 C 303.269 357.200,303.655 356.615,303.961 355.900 C 304.266 355.185,304.782 354.292,305.106 353.916 C 307.463 351.180,308.132 347.006,306.439 345.600 C 306.307 345.490,305.937 344.860,305.617 344.200 C 305.296 343.540,304.774 342.685,304.455 342.300 C 304.137 341.915,304.021 341.600,304.199 341.600 C 304.377 341.600,304.135 341.264,303.661 340.853 C 303.188 340.442,302.800 339.812,302.800 339.453 C 302.800 339.094,302.620 338.800,302.400 338.800 C 302.180 338.800,302.000 338.440,302.000 338.000 C 302.000 337.560,301.820 337.200,301.600 337.200 C 301.380 337.200,301.200 336.840,301.200 336.400 C 301.200 335.960,301.020 335.600,300.800 335.600 C 300.580 335.600,300.400 335.280,300.400 334.888 C 300.400 334.497,300.040 333.917,299.600 333.600 C 299.160 333.283,298.800 332.718,298.800 332.345 C 298.800 331.972,298.665 331.607,298.500 331.533 C 298.335 331.460,297.767 330.545,297.237 329.500 C 296.708 328.455,296.123 327.600,295.937 327.600 C 295.752 327.600,295.600 327.229,295.600 326.776 C 295.600 326.323,295.420 326.064,295.200 326.200 C 294.980 326.336,294.800 326.077,294.800 325.624 C 294.800 325.171,294.620 324.800,294.400 324.800 C 294.180 324.800,294.000 324.480,294.000 324.088 C 294.000 323.697,293.640 323.117,293.200 322.800 C 292.760 322.483,292.400 321.903,292.400 321.512 C 292.400 321.120,292.220 320.800,292.000 320.800 C 291.780 320.800,291.600 320.536,291.600 320.214 C 291.600 319.401,290.324 316.800,289.926 316.800 C 289.747 316.800,289.600 316.440,289.600 316.000 C 289.600 315.560,289.442 315.200,289.249 315.200 C 289.055 315.200,288.666 314.615,288.384 313.900 C 288.101 313.185,287.565 312.240,287.192 311.800 C 286.819 311.360,286.264 310.415,285.959 309.700 C 285.654 308.985,285.269 308.400,285.102 308.400 C 284.936 308.400,284.800 308.080,284.800 307.688 C 284.800 307.297,284.440 306.717,284.000 306.400 C 281.222 304.398,281.197 304.400,308.600 304.400 C 333.733 304.400,334.000 304.392,334.000 303.600 C 334.000 303.160,334.152 302.800,334.337 302.800 C 334.523 302.800,335.108 301.945,335.637 300.900 C 336.167 299.855,336.735 298.940,336.900 298.867 C 337.065 298.793,337.200 298.428,337.200 298.055 C 337.200 297.682,337.560 297.117,338.000 296.800 C 338.440 296.483,338.813 295.948,338.829 295.612 C 338.845 295.275,339.203 294.460,339.624 293.800 C 340.045 293.140,340.878 291.610,341.475 290.400 C 342.072 289.190,342.885 287.909,343.280 287.553 C 343.676 287.197,344.000 286.612,344.000 286.253 C 344.000 285.894,344.180 285.600,344.400 285.600 C 344.620 285.600,344.800 285.240,344.800 284.800 C 344.800 284.360,344.980 284.000,345.200 284.000 C 345.420 284.000,345.600 283.680,345.600 283.288 C 345.600 282.897,345.960 282.317,346.400 282.000 C 346.840 281.683,347.200 281.103,347.200 280.712 C 347.200 280.320,347.380 280.000,347.600 280.000 C 347.820 280.000,348.000 279.640,348.000 279.200 C 348.000 278.760,348.180 278.400,348.400 278.400 C 348.620 278.400,348.800 278.122,348.800 277.783 C 348.800 277.444,349.160 276.780,349.600 276.308 C 350.040 275.836,350.400 275.213,350.400 274.925 C 350.400 274.636,350.580 274.400,350.800 274.400 C 351.020 274.400,351.200 274.130,351.200 273.800 C 351.200 273.470,351.380 273.200,351.600 273.200 C 351.820 273.200,352.000 272.922,352.000 272.583 C 352.000 272.244,352.360 271.580,352.800 271.108 C 353.240 270.636,353.600 270.013,353.600 269.725 C 353.600 269.436,353.780 269.200,354.000 269.200 C 354.220 269.200,354.400 268.840,354.400 268.400 C 354.400 267.960,354.580 267.600,354.800 267.600 C 355.020 267.600,355.200 267.058,355.200 266.396 L 355.200 265.191 320.300 265.364 C 301.105 265.459,275.174 265.748,262.674 266.007 C 242.004 266.435,239.885 266.420,239.243 265.839 C 238.026 264.738,221.005 264.888,221.597 265.995 " stroke="none" fill="#5b9efc" fill-rule="evenodd"></path><path id="path1" d="M129.870 39.063 C 129.725 39.208,129.807 39.568,130.052 39.863 C 130.380 40.258,130.379 40.400,130.049 40.400 C 129.802 40.400,129.600 40.639,129.600 40.932 C 129.600 41.575,127.913 44.970,127.122 45.919 C 126.554 46.600,124.777 50.137,123.225 53.676 C 122.772 54.707,122.233 55.656,122.027 55.784 C 121.820 55.911,121.151 57.047,120.540 58.308 C 119.929 59.568,119.288 60.660,119.115 60.733 C 118.942 60.807,118.800 61.212,118.800 61.633 C 118.800 62.055,118.620 62.400,118.400 62.400 C 118.180 62.400,118.000 62.720,118.000 63.112 C 118.000 63.503,117.640 64.083,117.200 64.400 C 116.760 64.717,116.400 65.297,116.400 65.688 C 116.400 66.080,116.220 66.400,116.000 66.400 C 115.780 66.400,115.600 66.760,115.600 67.200 C 115.600 67.640,115.420 68.000,115.200 68.000 C 114.980 68.000,114.800 68.345,114.800 68.767 C 114.800 69.188,114.658 69.593,114.485 69.667 C 114.312 69.740,113.671 70.832,113.060 72.092 C 112.449 73.353,111.792 74.481,111.600 74.600 C 111.408 74.719,110.753 75.847,110.144 77.108 C 109.536 78.368,108.939 79.490,108.817 79.600 C 108.447 79.937,108.321 82.000,108.671 82.001 C 108.852 82.002,109.445 82.978,109.990 84.170 C 110.534 85.361,111.150 86.231,111.358 86.102 C 111.571 85.971,111.624 86.160,111.481 86.534 C 111.340 86.900,111.395 87.200,111.603 87.200 C 112.032 87.200,113.600 90.262,113.600 91.099 C 113.600 91.400,113.780 91.536,114.000 91.400 C 114.220 91.264,114.400 91.343,114.400 91.576 C 114.400 91.858,111.955 92.008,107.100 92.025 C 102.148 92.043,100.100 92.171,100.733 92.425 C 101.247 92.631,101.602 92.934,101.523 93.100 C 101.443 93.265,101.026 94.165,100.595 95.100 C 100.164 96.035,99.674 96.800,99.506 96.800 C 99.338 96.800,99.200 97.160,99.200 97.600 C 99.200 98.040,99.020 98.400,98.800 98.400 C 98.580 98.400,98.400 98.760,98.400 99.200 C 98.400 99.640,98.220 100.000,98.000 100.000 C 97.780 100.000,97.600 100.360,97.600 100.800 C 97.600 101.240,97.420 101.600,97.200 101.600 C 96.980 101.600,96.800 101.894,96.800 102.253 C 96.800 102.612,96.477 103.197,96.083 103.553 C 95.688 103.909,94.498 105.910,93.439 108.000 C 88.209 118.320,86.479 121.623,86.004 122.196 C 84.724 123.738,82.015 129.775,82.421 130.181 C 82.952 130.712,111.291 130.745,128.589 130.234 C 142.959 129.810,141.266 130.439,144.278 124.400 C 145.321 122.310,146.315 120.540,146.487 120.467 C 146.659 120.393,146.800 120.028,146.800 119.655 C 146.800 119.282,147.160 118.717,147.600 118.400 C 148.040 118.083,148.400 117.503,148.400 117.112 C 148.400 116.720,148.580 116.400,148.800 116.400 C 149.020 116.400,149.200 116.040,149.200 115.600 C 149.200 115.160,149.380 114.800,149.600 114.800 C 149.820 114.800,150.000 114.440,150.000 114.000 C 150.000 113.560,150.180 113.200,150.400 113.200 C 150.620 113.200,150.800 112.840,150.800 112.400 C 150.800 111.960,150.980 111.600,151.200 111.600 C 151.420 111.600,151.600 111.352,151.600 111.049 C 151.600 110.746,151.863 110.280,152.184 110.013 C 152.505 109.747,153.872 107.340,155.222 104.664 C 162.173 90.887,162.109 90.993,163.410 91.074 C 164.064 91.115,164.272 91.054,163.871 90.939 C 163.469 90.824,163.228 90.504,163.334 90.227 C 163.440 89.950,163.184 89.476,162.764 89.174 C 162.344 88.871,162.000 88.380,162.000 88.083 C 162.000 87.786,161.728 87.271,161.396 86.939 C 161.064 86.607,160.912 86.142,161.058 85.906 C 161.215 85.651,161.136 85.593,160.862 85.762 C 160.585 85.933,160.400 85.787,160.400 85.400 C 160.400 85.044,160.220 84.864,160.000 85.000 C 159.780 85.136,159.600 84.964,159.600 84.618 C 159.600 84.040,158.881 82.476,158.396 82.000 C 158.284 81.890,157.485 80.630,156.621 79.200 C 155.756 77.770,154.903 76.540,154.724 76.467 C 154.546 76.393,154.400 76.100,154.400 75.816 C 154.400 75.531,154.127 75.071,153.793 74.794 C 153.459 74.517,152.898 73.685,152.547 72.945 C 152.196 72.205,151.749 71.600,151.554 71.600 C 151.359 71.600,151.200 71.280,151.200 70.888 C 151.200 70.497,150.840 69.917,150.400 69.600 C 149.960 69.283,149.600 68.703,149.600 68.312 C 149.600 67.920,149.420 67.600,149.200 67.600 C 148.980 67.600,148.793 67.375,148.784 67.100 C 148.775 66.825,148.235 65.977,147.584 65.215 C 146.933 64.453,146.400 63.598,146.400 63.315 C 146.400 63.032,146.220 62.800,146.000 62.800 C 145.780 62.800,145.600 62.530,145.600 62.200 C 145.600 61.870,145.420 61.600,145.200 61.600 C 144.980 61.600,144.800 61.330,144.800 61.000 C 144.800 60.670,144.620 60.400,144.400 60.400 C 144.180 60.400,144.000 60.170,144.000 59.888 C 144.000 59.607,143.640 59.117,143.200 58.800 C 142.760 58.483,142.400 57.903,142.400 57.512 C 142.400 57.120,142.233 56.800,142.029 56.800 C 141.825 56.800,141.340 56.080,140.952 55.200 C 140.564 54.320,140.071 53.600,139.856 53.600 C 139.642 53.600,139.578 53.489,139.714 53.352 C 139.850 53.216,139.745 52.862,139.481 52.566 C 138.483 51.448,138.154 50.990,138.119 50.664 C 138.099 50.480,137.704 49.893,137.241 49.361 C 136.778 48.829,136.400 48.215,136.400 47.997 C 136.400 47.779,136.220 47.600,136.000 47.600 C 135.780 47.600,135.599 47.285,135.598 46.900 C 135.597 46.515,134.994 45.544,134.257 44.742 C 133.002 43.375,132.545 42.643,132.471 41.879 C 132.453 41.702,131.897 41.051,131.234 40.432 C 130.571 39.812,130.142 39.192,130.281 39.053 C 130.420 38.914,130.443 38.800,130.333 38.800 C 130.223 38.800,130.015 38.918,129.870 39.063 M318.602 128.803 C 318.739 129.024,318.569 129.314,318.225 129.446 C 317.881 129.578,317.600 130.127,317.600 130.666 C 317.600 131.282,317.435 131.545,317.157 131.374 C 316.862 131.191,316.801 131.372,316.973 131.916 C 317.116 132.365,317.042 132.850,316.810 132.994 C 316.577 133.138,316.491 133.423,316.617 133.628 C 316.744 133.832,316.571 134.000,316.233 134.000 C 315.895 134.000,315.303 134.495,314.918 135.100 C 314.533 135.705,314.056 136.315,313.858 136.455 C 313.660 136.596,313.622 136.912,313.774 137.158 C 313.926 137.404,313.769 137.714,313.425 137.846 C 313.081 137.978,312.800 138.426,312.800 138.843 C 312.800 139.259,312.650 139.600,312.468 139.600 C 312.285 139.600,311.886 140.095,311.582 140.700 C 311.278 141.305,310.713 142.270,310.326 142.845 C 309.940 143.420,309.738 144.005,309.878 144.145 C 310.019 144.285,309.923 144.400,309.667 144.400 C 309.410 144.400,309.200 144.670,309.200 145.000 C 309.200 145.330,309.020 145.600,308.800 145.600 C 308.580 145.600,308.400 145.878,308.400 146.217 C 308.400 146.556,308.040 147.220,307.600 147.692 C 307.160 148.164,306.800 148.787,306.800 149.075 C 306.800 149.364,306.620 149.600,306.400 149.600 C 306.180 149.600,306.000 149.960,306.000 150.400 C 306.000 150.840,305.820 151.200,305.600 151.200 C 305.380 151.200,305.200 151.560,305.200 152.000 C 305.200 152.440,305.048 152.800,304.863 152.800 C 304.677 152.800,304.092 153.655,303.563 154.700 C 303.033 155.745,302.465 156.660,302.300 156.733 C 302.135 156.807,302.000 157.212,302.000 157.633 C 302.000 158.055,301.820 158.400,301.600 158.400 C 301.380 158.400,301.200 158.915,301.200 159.544 C 301.200 160.618,300.112 163.046,298.082 166.500 C 296.998 168.343,295.795 170.488,294.660 172.600 C 294.187 173.480,293.710 174.290,293.600 174.400 C 293.490 174.510,293.026 175.320,292.570 176.200 C 291.490 178.282,290.651 179.750,290.398 180.000 C 288.902 181.480,289.540 185.095,291.724 187.519 C 292.062 187.894,292.458 188.682,292.605 189.271 C 292.752 189.859,293.216 190.652,293.636 191.033 C 294.056 191.413,294.400 191.966,294.400 192.262 C 294.400 192.558,294.580 192.800,294.800 192.800 C 295.020 192.800,295.200 193.120,295.200 193.512 C 295.200 193.903,295.560 194.483,296.000 194.800 C 296.440 195.117,296.800 195.657,296.800 196.000 C 296.800 196.343,297.160 196.883,297.600 197.200 C 298.040 197.517,298.400 198.097,298.400 198.488 C 298.400 198.880,298.580 199.200,298.800 199.200 C 299.020 199.200,299.200 199.494,299.200 199.853 C 299.200 200.212,299.524 200.797,299.920 201.153 C 300.317 201.509,300.951 202.467,301.331 203.283 C 301.711 204.099,302.197 204.875,302.412 205.007 C 302.626 205.140,303.161 206.037,303.600 207.000 C 304.039 207.963,304.574 208.860,304.788 208.993 C 305.003 209.125,305.484 209.901,305.856 210.717 C 306.229 211.533,306.803 212.516,307.132 212.903 C 307.823 213.716,308.428 214.747,309.555 217.035 C 309.998 217.934,310.639 218.901,310.980 219.184 C 311.321 219.466,311.600 220.047,311.600 220.473 C 311.600 220.899,311.761 221.148,311.958 221.026 C 312.155 220.904,312.415 221.062,312.536 221.376 C 312.656 221.691,312.540 222.036,312.278 222.143 C 312.015 222.249,312.835 222.351,314.100 222.368 C 315.388 222.386,316.400 222.224,316.400 222.000 C 316.400 221.746,319.392 221.600,324.576 221.600 C 329.596 221.600,332.848 221.446,333.000 221.200 C 333.151 220.955,336.330 220.800,341.200 220.800 C 346.070 220.800,349.249 220.645,349.400 220.400 C 349.552 220.155,352.793 220.000,357.790 220.000 C 363.072 220.000,365.982 219.854,366.072 219.584 C 366.154 219.338,367.765 219.154,370.005 219.133 C 372.092 219.113,373.350 218.978,372.800 218.832 C 372.158 218.662,371.498 217.962,370.955 216.876 C 370.491 215.946,369.816 214.860,369.455 214.461 C 369.095 214.063,368.800 213.548,368.800 213.317 C 368.800 213.087,368.521 212.666,368.180 212.384 C 367.839 212.101,367.210 211.100,366.781 210.159 C 366.353 209.218,365.821 208.337,365.600 208.200 C 365.379 208.063,364.839 207.163,364.400 206.200 C 363.961 205.237,363.426 204.340,363.212 204.207 C 362.997 204.075,362.516 203.299,362.144 202.483 C 361.771 201.667,361.197 200.684,360.868 200.297 C 360.172 199.479,359.569 198.447,358.426 196.124 C 357.973 195.203,357.421 194.337,357.200 194.200 C 356.979 194.063,356.439 193.163,356.000 192.200 C 355.561 191.237,355.026 190.340,354.812 190.207 C 354.597 190.075,354.111 189.299,353.731 188.483 C 353.351 187.667,352.717 186.709,352.320 186.353 C 351.924 185.997,351.600 185.412,351.600 185.053 C 351.600 184.694,351.420 184.400,351.200 184.400 C 350.980 184.400,350.800 184.080,350.800 183.688 C 350.800 183.297,350.440 182.717,350.000 182.400 C 349.560 182.083,349.200 181.534,349.200 181.179 C 349.200 180.279,347.807 179.693,345.000 179.413 C 343.680 179.281,342.298 179.140,341.929 179.101 C 341.561 179.061,341.346 178.887,341.453 178.714 C 341.560 178.541,340.287 178.400,338.624 178.400 C 336.875 178.400,335.600 178.231,335.600 178.000 C 335.600 177.780,335.780 177.600,336.000 177.600 C 336.220 177.600,336.400 177.240,336.400 176.800 C 336.400 176.360,336.568 176.000,336.774 176.000 C 336.980 176.000,337.373 175.380,337.647 174.621 C 337.921 173.863,338.293 173.334,338.473 173.445 C 338.653 173.556,338.800 173.453,338.800 173.216 C 338.800 172.978,339.256 172.061,339.814 171.178 C 340.726 169.733,340.766 169.509,340.214 168.957 C 339.876 168.619,339.603 168.131,339.606 167.871 C 339.610 167.538,339.698 167.529,339.906 167.839 C 340.247 168.350,341.669 168.435,341.355 167.927 C 341.239 167.740,340.965 167.698,340.746 167.834 C 340.526 167.969,340.387 167.837,340.437 167.540 C 340.567 166.773,339.798 165.062,339.042 164.435 C 338.689 164.142,338.400 163.676,338.400 163.400 C 338.400 163.124,338.121 162.666,337.780 162.384 C 337.439 162.101,336.810 161.100,336.381 160.159 C 335.953 159.218,335.421 158.337,335.200 158.200 C 334.979 158.063,334.439 157.163,334.000 156.200 C 333.561 155.237,333.021 154.337,332.800 154.200 C 332.579 154.063,332.039 153.163,331.600 152.200 C 331.161 151.237,330.626 150.340,330.412 150.207 C 330.197 150.075,329.716 149.299,329.344 148.483 C 328.971 147.667,328.397 146.684,328.068 146.297 C 327.368 145.473,326.766 144.442,325.606 142.080 C 325.142 141.134,324.500 140.260,324.181 140.137 C 323.861 140.015,323.600 139.574,323.600 139.157 C 323.600 138.741,323.420 138.400,323.200 138.400 C 322.980 138.400,322.800 138.080,322.800 137.688 C 322.800 137.297,322.440 136.717,322.000 136.400 C 321.560 136.083,321.200 135.503,321.200 135.112 C 321.200 134.720,321.020 134.400,320.800 134.400 C 320.580 134.400,320.400 134.080,320.400 133.688 C 320.400 133.297,320.040 132.717,319.600 132.400 C 319.160 132.083,318.800 131.593,318.800 131.312 C 318.800 131.030,318.610 130.800,318.377 130.800 C 318.140 130.800,318.228 130.409,318.577 129.911 C 319.305 128.872,319.367 128.400,318.776 128.400 C 318.543 128.400,318.465 128.581,318.602 128.803 M148.333 284.790 C 148.193 285.202,123.695 285.429,123.289 285.022 C 122.804 284.537,122.400 284.846,122.400 285.704 C 122.400 286.201,122.033 286.837,121.584 287.117 C 121.136 287.397,120.868 287.786,120.988 287.981 C 121.109 288.176,120.981 288.575,120.704 288.868 C 120.427 289.160,119.954 289.940,119.653 290.600 C 119.352 291.260,118.846 292.250,118.528 292.800 C 118.211 293.350,117.851 294.115,117.729 294.500 C 117.607 294.885,117.348 295.200,117.153 295.200 C 116.959 295.200,116.800 295.545,116.800 295.967 C 116.800 296.388,116.664 296.793,116.498 296.867 C 116.332 296.940,115.571 298.260,114.806 299.800 C 114.042 301.340,113.323 302.690,113.208 302.800 C 113.094 302.910,112.942 303.270,112.870 303.600 C 112.799 303.930,112.574 304.260,112.370 304.333 C 112.167 304.407,112.000 304.708,112.000 305.003 C 112.000 305.297,111.190 307.126,110.200 309.066 C 109.210 311.006,108.400 312.820,108.400 313.096 C 108.400 313.373,108.220 313.600,108.000 313.600 C 107.780 313.600,107.600 313.960,107.600 314.400 C 107.600 314.840,107.420 315.200,107.200 315.200 C 106.980 315.200,106.800 315.560,106.800 316.000 C 106.800 316.440,106.620 316.800,106.400 316.800 C 106.180 316.800,106.000 317.055,106.000 317.367 C 106.000 317.678,105.865 317.993,105.700 318.067 C 105.276 318.255,102.800 323.199,102.800 323.856 C 102.800 324.155,102.620 324.400,102.400 324.400 C 102.180 324.400,102.000 324.670,102.000 325.000 C 102.000 325.330,101.820 325.600,101.600 325.600 C 101.380 325.600,101.200 326.080,101.200 326.667 C 101.200 327.253,101.083 327.616,100.939 327.473 C 100.640 327.174,99.894 328.497,99.234 330.496 C 98.985 331.251,98.407 332.271,97.951 332.761 C 97.479 333.267,97.204 333.974,97.315 334.396 C 97.457 334.938,97.344 335.077,96.900 334.906 C 96.413 334.719,96.327 334.925,96.475 335.926 C 96.622 336.933,96.554 337.094,96.129 336.741 C 95.798 336.466,95.600 336.453,95.600 336.705 C 95.600 338.269,121.134 339.506,122.625 338.015 C 122.840 337.800,126.981 337.569,132.005 337.491 C 136.952 337.414,141.360 337.241,141.800 337.106 C 142.240 336.971,142.754 336.847,142.943 336.831 C 143.131 336.814,143.182 336.530,143.055 336.200 C 142.920 335.848,143.050 335.600,143.368 335.600 C 143.667 335.600,144.024 334.999,144.162 334.264 C 144.299 333.529,144.859 332.508,145.406 331.994 C 145.953 331.481,146.400 330.822,146.400 330.530 C 146.400 330.239,146.580 330.000,146.800 330.000 C 147.020 330.000,147.200 329.640,147.200 329.200 C 147.200 328.760,147.368 328.400,147.573 328.400 C 147.778 328.400,148.057 328.049,148.194 327.620 C 148.506 326.636,149.453 326.960,149.753 328.155 C 149.877 328.649,150.339 329.469,150.781 329.978 C 151.222 330.487,151.487 331.060,151.368 331.252 C 151.250 331.443,151.343 331.600,151.576 331.600 C 151.809 331.600,152.000 331.960,152.000 332.400 C 152.000 332.840,152.180 333.200,152.400 333.200 C 152.620 333.200,152.800 333.476,152.800 333.813 C 152.800 334.149,153.069 334.528,153.398 334.654 C 153.726 334.781,153.896 335.045,153.774 335.242 C 153.652 335.439,153.731 335.600,153.949 335.600 C 154.168 335.600,154.464 335.972,154.609 336.428 C 154.861 337.222,154.895 337.226,155.468 336.528 C 155.882 336.024,156.009 335.985,155.883 336.400 C 155.666 337.116,183.286 337.102,183.533 336.386 C 183.612 336.157,186.630 336.000,190.957 336.000 C 196.994 336.000,198.381 335.892,199.024 335.370 C 199.451 335.024,199.602 334.838,199.359 334.958 C 199.116 335.077,198.576 334.897,198.159 334.558 C 197.742 334.218,197.613 334.047,197.872 334.177 C 198.688 334.585,198.794 333.773,198.013 333.104 C 197.603 332.753,197.186 332.547,197.087 332.647 C 196.987 332.746,196.993 332.371,197.099 331.814 C 197.206 331.256,197.126 330.800,196.921 330.800 C 196.717 330.800,196.302 330.170,196.000 329.400 C 195.698 328.630,195.304 328.000,195.125 328.000 C 194.946 328.000,194.800 327.719,194.800 327.376 C 194.800 327.033,194.620 326.864,194.400 327.000 C 194.180 327.136,194.000 326.877,194.000 326.424 C 194.000 325.971,193.820 325.600,193.600 325.600 C 193.380 325.600,193.200 325.317,193.200 324.971 C 193.200 324.626,192.928 324.071,192.596 323.739 C 192.264 323.407,192.095 322.970,192.220 322.768 C 192.345 322.565,192.279 322.400,192.074 322.400 C 191.869 322.400,191.143 321.275,190.461 319.900 C 189.138 317.235,187.543 314.434,186.416 312.800 C 186.036 312.250,185.473 311.215,185.165 310.500 C 184.857 309.785,184.469 309.200,184.302 309.200 C 184.136 309.200,184.000 308.930,184.000 308.600 C 184.000 308.270,183.820 308.000,183.600 308.000 C 183.380 308.000,183.200 307.791,183.200 307.535 C 183.200 307.280,182.599 306.515,181.864 305.835 C 180.456 304.534,179.423 303.145,178.084 300.755 C 176.382 297.714,176.194 297.394,176.000 297.200 C 175.813 297.013,175.278 296.102,174.238 294.200 C 173.997 293.760,173.710 293.310,173.600 293.200 C 173.204 292.804,171.946 290.585,171.729 289.900 C 171.607 289.515,171.348 289.200,171.153 289.200 C 170.959 289.200,170.800 288.964,170.800 288.675 C 170.800 288.387,170.485 287.802,170.100 287.375 C 169.715 286.949,169.145 286.105,168.832 285.500 L 168.265 284.400 158.366 284.400 C 152.292 284.400,148.415 284.551,148.333 284.790 M155.200 337.957 C 155.200 338.154,155.440 338.407,155.733 338.519 C 156.027 338.632,156.267 338.471,156.267 338.162 C 156.267 337.853,156.027 337.600,155.733 337.600 C 155.440 337.600,155.200 337.761,155.200 337.957 " stroke="none" fill="#b899f9" fill-rule="evenodd"></path><path id="path2" d="M162.066 91.400 C 161.733 91.918,158.349 98.480,155.225 104.664 C 153.874 107.340,152.505 109.747,152.184 110.013 C 151.863 110.280,151.600 110.746,151.600 111.049 C 151.600 111.352,151.420 111.600,151.200 111.600 C 150.980 111.600,150.800 111.960,150.800 112.400 C 150.800 112.840,150.620 113.200,150.400 113.200 C 150.180 113.200,150.000 113.560,150.000 114.000 C 150.000 114.440,149.820 114.800,149.600 114.800 C 149.380 114.800,149.200 115.160,149.200 115.600 C 149.200 116.040,149.020 116.400,148.800 116.400 C 148.580 116.400,148.400 116.720,148.400 117.112 C 148.400 117.503,148.040 118.083,147.600 118.400 C 147.160 118.717,146.800 119.282,146.800 119.655 C 146.800 120.028,146.659 120.393,146.487 120.467 C 146.315 120.540,145.321 122.310,144.278 124.400 C 141.252 130.468,142.213 129.987,132.936 130.079 C 128.571 130.122,134.450 130.276,146.000 130.421 C 173.794 130.770,208.041 130.788,206.847 130.453 C 205.984 130.211,205.956 130.135,206.547 129.644 C 206.906 129.346,207.200 128.913,207.200 128.681 C 207.200 128.082,210.109 122.227,210.486 122.067 C 210.659 121.993,210.800 121.628,210.800 121.255 C 210.800 120.882,211.160 120.317,211.600 120.000 C 212.040 119.683,212.400 119.103,212.400 118.712 C 212.400 118.320,212.580 118.000,212.800 118.000 C 213.020 118.000,213.200 117.640,213.200 117.200 C 213.200 116.760,213.380 116.400,213.600 116.400 C 213.820 116.400,214.000 116.055,214.000 115.633 C 214.000 115.212,214.135 114.807,214.300 114.733 C 214.465 114.660,215.041 113.700,215.579 112.600 C 216.118 111.500,216.820 110.286,217.140 109.901 C 218.104 108.744,221.585 101.441,221.282 101.212 C 221.127 101.096,220.108 99.255,219.018 97.121 C 217.928 94.988,216.723 92.828,216.341 92.321 L 215.646 91.400 188.985 91.200 C 171.428 91.068,162.236 91.137,162.066 91.400 M300.839 159.800 C 300.790 160.531,300.081 161.940,297.670 166.100 C 296.360 168.358,295.950 169.070,287.029 184.568 C 281.912 193.458,278.155 199.539,277.179 200.515 C 276.310 201.384,275.600 202.433,275.600 202.847 C 275.600 203.261,275.420 203.600,275.200 203.600 C 274.980 203.600,274.800 203.878,274.800 204.217 C 274.800 204.556,274.440 205.220,274.000 205.692 C 273.560 206.164,273.200 206.787,273.200 207.075 C 273.200 207.364,273.020 207.600,272.800 207.600 C 272.580 207.600,272.400 207.960,272.400 208.400 C 272.400 208.840,272.264 209.200,272.098 209.200 C 271.931 209.200,271.571 209.706,271.297 210.325 C 271.024 210.944,270.440 211.836,270.000 212.308 C 269.560 212.780,269.200 213.444,269.200 213.783 C 269.200 214.122,269.020 214.400,268.800 214.400 C 268.580 214.400,268.400 214.681,268.400 215.024 C 268.400 215.367,268.216 215.533,267.990 215.394 C 267.765 215.255,267.625 215.289,267.679 215.470 C 267.821 215.940,266.665 218.400,266.302 218.400 C 266.136 218.400,266.000 218.760,266.000 219.200 C 266.000 219.640,265.820 220.000,265.600 220.000 C 265.380 220.000,265.200 220.281,265.200 220.624 C 265.200 220.993,265.012 221.131,264.738 220.962 C 264.464 220.793,264.385 220.851,264.542 221.106 C 264.688 221.342,264.536 221.807,264.204 222.139 C 263.872 222.471,263.600 223.026,263.600 223.371 C 263.600 223.717,263.462 224.000,263.294 224.000 C 263.126 224.000,262.562 224.900,262.039 226.000 C 261.517 227.100,260.935 228.000,260.745 228.000 C 260.555 228.000,260.400 228.197,260.400 228.438 C 260.400 228.679,260.045 229.375,259.612 229.983 C 259.178 230.592,258.938 231.205,259.078 231.345 C 259.219 231.485,259.123 231.600,258.867 231.600 C 258.610 231.600,258.400 231.887,258.400 232.238 C 258.400 232.894,256.957 235.183,256.231 235.678 C 256.007 235.831,255.945 236.079,256.094 236.228 C 256.243 236.377,255.914 237.090,255.363 237.813 C 254.729 238.644,254.516 239.224,254.783 239.390 C 255.016 239.534,255.344 239.280,255.512 238.825 C 255.789 238.076,255.890 238.139,256.589 239.500 C 257.013 240.325,257.623 241.316,257.945 241.703 C 258.633 242.531,259.248 243.586,260.374 245.876 C 260.827 246.797,261.379 247.663,261.600 247.800 C 261.821 247.937,262.361 248.837,262.800 249.800 C 263.239 250.763,263.779 251.663,264.000 251.800 C 264.221 251.937,264.761 252.837,265.200 253.800 C 265.639 254.763,266.179 255.663,266.400 255.800 C 266.621 255.937,267.153 256.818,267.581 257.759 C 268.010 258.700,268.639 259.701,268.980 259.984 C 269.321 260.266,269.600 260.724,269.600 261.000 C 269.600 261.276,269.873 261.729,270.207 262.006 C 270.541 262.283,271.090 263.091,271.427 263.800 C 272.135 265.293,273.753 265.604,280.759 265.595 C 285.817 265.587,286.138 265.472,287.248 263.265 C 287.764 262.239,288.532 261.085,288.954 260.700 C 289.377 260.315,289.600 260.000,289.450 260.000 C 289.299 260.000,289.634 259.235,290.194 258.300 C 290.753 257.365,291.319 256.285,291.452 255.900 C 291.585 255.515,291.852 255.200,292.047 255.200 C 292.241 255.200,292.400 254.840,292.400 254.400 C 292.400 253.960,292.580 253.600,292.800 253.600 C 293.020 253.600,293.200 253.330,293.200 253.000 C 293.200 252.670,293.380 252.400,293.600 252.400 C 293.820 252.400,294.000 252.130,294.000 251.800 C 294.000 251.470,294.180 251.200,294.400 251.200 C 294.620 251.200,294.800 250.840,294.800 250.400 C 294.800 249.960,294.980 249.600,295.200 249.600 C 295.420 249.600,295.600 249.330,295.600 249.000 C 295.600 248.670,295.746 248.400,295.925 248.400 C 296.104 248.400,296.498 247.770,296.800 247.000 C 297.102 246.230,297.496 245.600,297.675 245.600 C 297.854 245.600,298.000 245.240,298.000 244.800 C 298.000 244.360,298.158 244.000,298.351 244.000 C 298.545 244.000,298.927 243.460,299.200 242.800 C 299.473 242.140,299.855 241.600,300.049 241.600 C 300.242 241.600,300.400 241.330,300.400 241.000 C 300.400 240.670,300.544 240.400,300.720 240.400 C 300.895 240.400,301.268 239.767,301.548 238.994 C 301.827 238.220,302.228 237.694,302.438 237.824 C 302.648 237.953,302.770 237.897,302.710 237.698 C 302.601 237.338,304.584 233.615,306.300 230.958 C 306.795 230.191,307.200 229.302,307.200 228.982 C 307.200 228.662,307.380 228.400,307.600 228.400 C 307.820 228.400,308.000 228.106,308.000 227.747 C 308.000 227.388,308.372 226.771,308.826 226.377 C 309.281 225.983,309.641 225.557,309.626 225.430 C 309.524 224.533,309.697 224.047,310.376 223.318 C 310.803 222.860,311.061 222.394,310.949 222.283 C 310.838 222.171,310.939 221.961,311.173 221.816 C 311.408 221.671,311.600 221.738,311.600 221.964 C 311.600 222.190,311.859 222.276,312.175 222.154 C 312.491 222.033,312.652 221.680,312.533 221.369 C 312.414 221.059,312.155 220.904,311.958 221.026 C 311.761 221.148,311.600 220.899,311.600 220.473 C 311.600 220.047,311.321 219.466,310.980 219.184 C 310.639 218.901,309.998 217.934,309.555 217.035 C 308.428 214.747,307.823 213.716,307.132 212.903 C 306.803 212.516,306.229 211.533,305.856 210.717 C 305.484 209.901,305.003 209.125,304.788 208.993 C 304.574 208.860,304.039 207.963,303.600 207.000 C 303.161 206.037,302.626 205.140,302.412 205.007 C 302.197 204.875,301.711 204.099,301.331 203.283 C 300.951 202.467,300.317 201.509,299.920 201.153 C 299.524 200.797,299.200 200.212,299.200 199.853 C 299.200 199.494,299.020 199.200,298.800 199.200 C 298.580 199.200,298.400 198.880,298.400 198.488 C 298.400 198.097,298.040 197.517,297.600 197.200 C 297.160 196.883,296.800 196.343,296.800 196.000 C 296.800 195.657,296.440 195.117,296.000 194.800 C 295.560 194.483,295.200 193.903,295.200 193.512 C 295.200 193.120,295.020 192.800,294.800 192.800 C 294.580 192.800,294.400 192.558,294.400 192.262 C 294.400 191.966,294.056 191.413,293.636 191.033 C 293.216 190.652,292.752 189.859,292.605 189.271 C 292.458 188.682,292.062 187.894,291.724 187.519 C 289.540 185.095,288.902 181.480,290.398 180.000 C 290.651 179.750,291.490 178.282,292.570 176.200 C 293.026 175.320,293.490 174.510,293.600 174.400 C 293.710 174.290,294.187 173.480,294.660 172.600 C 295.933 170.233,296.958 168.416,298.160 166.400 C 300.027 163.268,301.265 160.424,301.076 159.700 C 300.921 159.108,300.884 159.124,300.839 159.800 M136.523 227.637 C 136.253 227.907,132.736 228.041,126.609 228.014 C 120.770 227.989,116.927 228.128,116.629 228.376 C 116.363 228.597,113.477 228.828,110.215 228.889 C 104.763 228.991,104.250 229.064,103.843 229.800 C 103.599 230.240,103.289 230.690,103.153 230.800 C 100.973 232.562,97.058 240.800,98.400 240.800 C 98.620 240.800,98.800 241.160,98.800 241.600 C 98.800 242.040,98.980 242.400,99.200 242.400 C 99.420 242.400,99.600 242.760,99.600 243.200 C 99.600 243.640,99.736 244.000,99.902 244.000 C 100.265 244.000,101.421 246.460,101.279 246.930 C 101.225 247.111,101.365 247.145,101.590 247.006 C 101.816 246.867,102.000 247.033,102.000 247.376 C 102.000 247.719,102.180 248.000,102.400 248.000 C 102.620 248.000,102.800 248.345,102.800 248.767 C 102.800 249.188,102.935 249.593,103.100 249.667 C 103.476 249.834,104.775 251.964,105.071 252.900 C 105.193 253.285,105.452 253.600,105.647 253.600 C 105.841 253.600,106.000 253.960,106.000 254.400 C 106.000 254.840,106.136 255.200,106.302 255.200 C 106.469 255.200,106.829 255.706,107.103 256.325 C 107.376 256.944,107.960 257.836,108.400 258.308 C 108.840 258.780,109.200 259.349,109.200 259.571 C 109.200 259.794,109.557 260.611,109.993 261.388 C 110.429 262.165,110.654 262.803,110.493 262.806 C 110.332 262.809,110.405 262.944,110.655 263.106 C 111.188 263.451,113.333 267.200,112.997 267.200 C 112.872 267.200,113.112 267.568,113.531 268.018 C 113.950 268.467,114.719 269.682,115.241 270.718 C 115.762 271.753,116.282 272.690,116.395 272.800 C 116.509 272.910,116.856 273.495,117.168 274.100 C 117.480 274.705,117.885 275.200,118.068 275.200 C 118.250 275.200,118.400 275.560,118.400 276.000 C 118.400 276.440,118.580 276.800,118.800 276.800 C 119.020 276.800,119.200 277.120,119.200 277.512 C 119.200 277.903,119.560 278.483,120.000 278.800 C 120.440 279.117,120.800 279.787,120.800 280.288 C 120.800 280.790,120.980 281.200,121.200 281.200 C 121.420 281.200,121.600 281.470,121.600 281.800 C 121.600 282.130,121.780 282.400,122.000 282.400 C 122.220 282.400,122.400 282.782,122.400 283.249 C 122.400 283.895,122.523 283.996,122.914 283.671 C 123.310 283.343,123.425 283.474,123.414 284.240 L 123.400 285.235 135.800 285.208 C 143.473 285.191,148.251 285.031,148.333 284.790 C 148.415 284.551,152.292 284.400,158.366 284.400 L 168.265 284.400 168.832 285.500 C 169.145 286.105,169.715 286.949,170.100 287.375 C 170.485 287.802,170.800 288.387,170.800 288.675 C 170.800 288.964,170.959 289.200,171.153 289.200 C 171.348 289.200,171.607 289.515,171.729 289.900 C 171.946 290.585,173.204 292.804,173.600 293.200 C 173.787 293.387,174.322 294.298,175.362 296.200 C 175.603 296.640,175.890 297.090,176.000 297.200 C 176.110 297.310,176.442 297.830,176.738 298.355 C 177.033 298.880,177.640 299.959,178.086 300.753 C 179.583 303.418,181.167 305.502,181.886 305.753 C 182.447 305.948,182.415 305.844,181.736 305.266 C 181.020 304.656,178.487 300.496,172.747 290.500 C 170.977 287.419,170.390 286.408,168.392 283.000 C 161.406 271.087,158.800 266.309,158.800 265.412 C 158.800 264.856,158.640 264.400,158.443 264.400 C 158.247 264.400,157.963 263.907,157.812 263.304 C 157.660 262.701,157.406 262.116,157.246 262.004 C 156.629 261.571,154.071 256.460,154.329 256.174 C 154.478 256.008,154.375 256.001,154.100 256.159 C 153.791 256.337,153.600 256.209,153.600 255.824 C 153.600 255.481,153.465 255.199,153.300 255.199 C 153.135 255.198,152.550 254.208,152.000 253.000 C 151.450 251.792,150.865 250.802,150.700 250.801 C 150.535 250.801,150.400 250.530,150.400 250.200 C 150.400 249.870,150.220 249.600,150.000 249.600 C 149.780 249.600,149.596 249.375,149.591 249.100 C 149.586 248.825,149.230 248.150,148.800 247.600 C 148.370 247.050,148.014 246.285,148.009 245.900 C 148.004 245.515,147.820 245.200,147.600 245.200 C 147.380 245.200,147.200 244.930,147.200 244.600 C 147.200 244.270,147.020 244.000,146.800 244.000 C 146.580 244.000,146.396 243.775,146.391 243.500 C 146.386 243.225,146.030 242.550,145.600 242.000 C 145.170 241.450,144.814 240.725,144.809 240.388 C 144.804 240.052,144.440 239.517,144.000 239.200 C 143.560 238.883,143.200 238.303,143.200 237.912 C 143.200 237.520,143.020 237.200,142.800 237.200 C 142.580 237.200,142.400 236.840,142.400 236.400 C 142.400 235.960,142.264 235.600,142.098 235.600 C 141.931 235.600,141.556 235.059,141.263 234.398 C 140.970 233.736,140.604 233.274,140.449 233.370 C 140.293 233.466,140.138 233.177,140.105 232.728 C 140.071 232.278,139.735 231.571,139.359 231.155 C 138.984 230.740,138.799 230.400,138.948 230.400 C 139.326 230.400,138.176 228.244,137.497 227.680 C 137.110 227.359,136.814 227.346,136.523 227.637 " stroke="none" fill="#9679f4" fill-rule="evenodd"></path><path id="path3" d="M219.058 97.200 C 220.126 99.290,221.127 101.096,221.282 101.212 C 221.585 101.441,218.104 108.744,217.140 109.901 C 216.820 110.286,216.118 111.500,215.579 112.600 C 215.041 113.700,214.465 114.660,214.300 114.733 C 214.135 114.807,214.000 115.212,214.000 115.633 C 214.000 116.055,213.820 116.400,213.600 116.400 C 213.380 116.400,213.200 116.760,213.200 117.200 C 213.200 117.640,213.020 118.000,212.800 118.000 C 212.580 118.000,212.400 118.320,212.400 118.712 C 212.400 119.103,212.040 119.683,211.600 120.000 C 211.160 120.317,210.800 120.882,210.800 121.255 C 210.800 121.628,210.659 121.993,210.486 122.067 C 210.109 122.227,207.200 128.082,207.200 128.681 C 207.200 128.913,206.906 129.346,206.547 129.644 C 205.435 130.567,207.076 130.718,218.667 130.760 C 225.095 130.784,229.588 130.954,229.667 131.178 C 229.820 131.613,238.092 131.838,238.759 131.426 C 239.675 130.859,238.934 129.455,228.529 112.050 C 217.159 93.031,215.998 91.210,219.058 97.200 M282.667 128.273 C 282.384 129.087,278.853 131.200,277.777 131.200 C 277.520 131.200,275.911 131.920,274.200 132.800 C 272.489 133.680,270.869 134.400,270.600 134.400 C 270.331 134.400,268.711 135.120,267.000 136.000 C 265.289 136.880,263.554 137.600,263.145 137.600 C 262.735 137.600,262.400 137.780,262.400 138.000 C 262.400 138.220,262.040 138.400,261.600 138.400 C 261.160 138.400,260.800 138.580,260.800 138.800 C 260.800 139.020,260.440 139.200,260.000 139.200 C 259.560 139.200,259.199 139.335,259.197 139.500 C 259.193 139.883,257.236 140.800,256.420 140.801 C 256.079 140.802,254.210 141.601,252.266 142.577 C 247.761 144.839,245.200 144.992,245.200 142.998 C 245.200 142.648,244.962 142.516,244.587 142.660 C 244.105 142.845,244.219 143.077,245.123 143.748 C 245.755 144.216,246.195 144.825,246.102 145.100 C 245.998 145.410,246.163 145.513,246.536 145.369 C 247.154 145.132,247.233 145.791,246.691 146.658 C 246.533 146.910,246.671 147.218,246.996 147.343 C 247.365 147.485,247.490 147.837,247.330 148.285 C 247.188 148.678,247.218 148.868,247.397 148.706 C 247.768 148.370,248.768 149.537,248.787 150.329 C 248.794 150.619,249.070 151.127,249.399 151.457 C 249.729 151.786,250.119 152.537,250.267 153.124 C 250.567 154.319,251.374 155.292,251.752 154.914 C 251.889 154.778,252.000 155.064,252.000 155.550 C 252.000 156.036,252.360 156.820,252.800 157.292 C 253.240 157.764,253.600 158.437,253.600 158.787 C 253.600 159.137,253.960 159.683,254.400 160.000 C 254.840 160.317,255.200 160.897,255.200 161.288 C 255.200 161.680,255.380 162.000,255.600 162.000 C 255.820 162.000,256.000 162.320,256.000 162.712 C 256.000 163.103,256.360 163.683,256.800 164.000 C 257.240 164.317,257.600 164.897,257.600 165.288 C 257.600 165.680,257.780 166.000,258.000 166.000 C 258.220 166.000,258.400 166.287,258.400 166.638 C 258.400 167.213,259.492 169.500,260.005 170.000 C 260.118 170.110,260.655 171.100,261.199 172.200 C 261.742 173.300,262.504 174.491,262.893 174.847 C 263.282 175.203,263.600 175.788,263.600 176.147 C 263.600 176.506,263.780 176.800,264.000 176.800 C 264.220 176.800,264.400 177.160,264.400 177.600 C 264.400 178.040,264.580 178.400,264.800 178.400 C 265.020 178.400,265.200 178.720,265.200 179.112 C 265.200 179.503,265.560 180.083,266.000 180.400 C 266.440 180.717,266.800 181.297,266.800 181.688 C 266.800 182.080,266.980 182.400,267.200 182.400 C 267.420 182.400,267.600 182.760,267.600 183.200 C 267.600 183.640,267.780 184.000,268.000 184.000 C 268.220 184.000,268.400 184.320,268.400 184.712 C 268.400 185.103,268.760 185.683,269.200 186.000 C 269.640 186.317,270.000 186.897,270.000 187.288 C 270.000 187.680,270.180 188.000,270.400 188.000 C 270.620 188.000,270.800 188.360,270.800 188.800 C 270.800 189.240,270.980 189.600,271.200 189.600 C 271.420 189.600,271.600 189.830,271.600 190.112 C 271.600 190.393,271.960 190.883,272.400 191.200 C 272.840 191.517,273.200 192.097,273.200 192.488 C 273.200 192.880,273.380 193.200,273.600 193.200 C 273.820 193.200,274.000 193.560,274.000 194.000 C 274.000 194.440,274.180 194.800,274.400 194.800 C 274.620 194.800,274.800 195.083,274.800 195.429 C 274.800 195.774,275.070 196.327,275.400 196.657 C 275.730 196.987,276.000 197.604,276.000 198.029 C 276.000 198.453,276.167 198.800,276.372 198.800 C 276.577 198.800,276.802 199.182,276.872 199.649 C 277.136 201.399,278.799 198.935,287.031 184.600 C 295.659 169.574,296.246 168.553,297.671 166.100 C 301.160 160.093,301.491 158.563,299.598 157.199 C 299.159 156.882,298.800 156.303,298.800 155.912 C 298.800 155.520,298.620 155.200,298.400 155.200 C 298.180 155.200,298.000 154.840,298.000 154.400 C 298.000 153.960,297.820 153.600,297.600 153.600 C 297.380 153.600,297.200 153.280,297.200 152.888 C 297.200 152.497,296.840 151.917,296.400 151.600 C 295.960 151.283,295.600 150.703,295.600 150.312 C 295.600 149.920,295.420 149.600,295.200 149.600 C 294.980 149.600,294.800 149.240,294.800 148.800 C 294.800 148.360,294.620 148.000,294.400 148.000 C 294.180 148.000,294.000 147.680,294.000 147.288 C 294.000 146.897,293.640 146.317,293.200 146.000 C 292.760 145.683,292.400 145.093,292.400 144.688 C 292.400 144.284,292.220 144.064,292.000 144.200 C 291.780 144.336,291.600 144.091,291.600 143.656 C 291.600 142.771,290.365 140.406,289.900 140.403 C 289.735 140.401,289.600 140.040,289.600 139.600 C 289.600 139.160,289.420 138.800,289.200 138.800 C 288.980 138.800,288.800 138.459,288.800 138.043 C 288.800 137.626,288.539 137.185,288.219 137.063 C 287.900 136.940,287.270 136.032,286.820 135.044 C 286.370 134.057,285.829 133.142,285.619 133.011 C 285.408 132.881,285.336 132.510,285.460 132.187 C 285.584 131.864,285.486 131.600,285.243 131.600 C 284.999 131.600,284.800 131.324,284.800 130.987 C 284.800 130.651,284.531 130.272,284.202 130.146 C 283.874 130.019,283.704 129.755,283.826 129.558 C 283.948 129.361,283.869 129.200,283.651 129.200 C 283.434 129.200,283.192 128.795,283.113 128.300 L 282.971 127.400 282.667 128.273 M116.323 130.684 C 115.601 130.794,115.074 131.237,114.725 132.024 C 114.439 132.671,114.069 133.200,113.902 133.200 C 113.736 133.200,113.600 133.520,113.600 133.912 C 113.600 134.303,113.240 134.883,112.800 135.200 C 112.360 135.517,112.000 136.097,112.000 136.488 C 112.000 136.880,111.820 137.200,111.600 137.200 C 111.380 137.200,111.200 137.550,111.200 137.977 C 111.200 138.405,110.885 138.990,110.500 139.277 C 110.115 139.565,109.741 140.068,109.668 140.396 C 109.595 140.724,109.355 141.104,109.134 141.241 C 108.913 141.378,108.792 141.598,108.866 141.732 C 108.940 141.865,108.685 142.342,108.300 142.792 C 107.915 143.241,107.600 143.837,107.600 144.116 C 107.600 144.395,107.240 144.883,106.800 145.200 C 106.360 145.517,106.000 146.097,106.000 146.488 C 106.000 146.880,105.820 147.200,105.600 147.200 C 105.380 147.200,105.200 147.478,105.200 147.817 C 105.200 148.156,104.840 148.820,104.400 149.292 C 103.960 149.764,103.600 150.488,103.600 150.899 C 103.600 151.311,103.420 151.536,103.200 151.400 C 102.980 151.264,102.800 151.457,102.800 151.829 C 102.800 152.202,102.469 152.797,102.064 153.153 C 101.659 153.509,101.209 154.282,101.063 154.872 C 100.918 155.462,100.529 156.214,100.199 156.543 C 99.870 156.873,99.600 157.426,99.600 157.771 C 99.600 158.117,99.442 158.400,99.249 158.400 C 99.055 158.400,98.674 158.938,98.402 159.595 C 98.130 160.252,97.720 160.674,97.492 160.533 C 97.252 160.385,97.196 160.470,97.360 160.735 C 97.516 160.987,97.459 161.510,97.234 161.897 C 97.009 162.284,96.819 162.452,96.812 162.271 C 96.805 162.091,96.509 162.234,96.152 162.590 C 95.796 162.947,95.600 163.333,95.716 163.449 C 95.832 163.565,95.785 164.157,95.610 164.763 C 95.382 165.560,95.437 165.867,95.809 165.867 C 96.092 165.867,96.241 165.650,96.139 165.385 C 96.037 165.120,96.244 164.792,96.598 164.656 C 96.975 164.512,97.139 164.574,96.995 164.808 C 96.680 165.318,97.750 166.400,98.571 166.400 C 98.917 166.400,99.200 166.580,99.200 166.800 C 99.200 167.020,99.520 167.200,99.912 167.200 C 100.303 167.200,100.883 167.560,101.200 168.000 C 101.517 168.440,102.097 168.800,102.488 168.800 C 102.880 168.800,103.200 168.980,103.200 169.200 C 103.200 169.420,103.448 169.600,103.751 169.600 C 104.054 169.600,104.534 169.879,104.816 170.220 C 105.099 170.561,106.100 171.190,107.041 171.619 C 107.982 172.047,108.859 172.573,108.991 172.786 C 109.123 172.999,110.349 173.735,111.716 174.420 C 115.778 176.458,117.574 177.455,118.307 178.077 C 118.688 178.401,119.667 178.971,120.483 179.344 C 121.299 179.716,122.075 180.197,122.207 180.412 C 122.340 180.626,123.218 181.153,124.159 181.581 C 125.100 182.010,126.101 182.639,126.384 182.980 C 126.666 183.321,127.115 183.600,127.379 183.600 C 127.644 183.600,128.283 184.050,128.800 184.600 C 129.317 185.150,130.023 185.597,130.370 185.594 C 130.923 185.588,130.927 185.540,130.400 185.194 C 129.867 184.844,129.867 184.757,130.400 184.415 C 130.730 184.203,131.001 183.888,131.002 183.715 C 131.005 183.378,132.212 181.574,133.200 180.429 C 133.530 180.046,133.858 179.478,133.930 179.167 C 134.001 178.855,134.406 178.228,134.830 177.774 C 135.253 177.320,135.600 176.735,135.600 176.474 C 135.600 176.213,135.751 176.000,135.936 176.000 C 136.121 176.000,136.512 175.274,136.804 174.387 C 137.097 173.500,137.452 172.961,137.593 173.189 C 137.734 173.417,138.097 172.973,138.399 172.202 C 138.702 171.431,139.106 170.800,139.298 170.800 C 139.490 170.800,139.544 170.632,139.417 170.428 C 139.291 170.223,139.354 169.952,139.559 169.825 C 139.763 169.699,140.322 168.787,140.801 167.798 C 141.280 166.809,141.835 166.000,142.036 166.000 C 142.236 166.000,142.400 165.640,142.400 165.200 C 142.400 164.760,142.580 164.400,142.800 164.400 C 143.020 164.400,143.200 164.040,143.200 163.600 C 143.200 163.160,143.380 162.800,143.600 162.800 C 143.820 162.800,144.000 162.480,144.000 162.088 C 144.000 161.697,144.360 161.117,144.800 160.800 C 145.240 160.483,145.600 159.903,145.600 159.512 C 145.600 159.120,145.780 158.800,146.000 158.800 C 146.220 158.800,146.400 158.530,146.400 158.200 C 146.400 157.870,146.580 157.600,146.800 157.600 C 147.020 157.600,147.200 157.330,147.200 157.000 C 147.200 156.670,147.380 156.400,147.600 156.400 C 147.820 156.400,148.000 156.130,148.000 155.800 C 148.000 155.470,148.180 155.200,148.400 155.200 C 148.620 155.200,148.800 154.922,148.800 154.583 C 148.800 154.244,149.160 153.580,149.600 153.108 C 150.040 152.636,150.400 152.013,150.400 151.725 C 150.400 151.436,150.580 151.200,150.800 151.200 C 151.020 151.200,151.200 150.880,151.200 150.488 C 151.200 150.097,151.560 149.517,152.000 149.200 C 152.440 148.883,152.800 148.303,152.800 147.912 C 152.800 147.520,152.980 147.200,153.200 147.200 C 153.420 147.200,153.600 146.922,153.600 146.583 C 153.600 146.244,153.960 145.580,154.400 145.108 C 154.840 144.636,155.200 144.013,155.200 143.725 C 155.200 143.436,155.380 143.200,155.600 143.200 C 155.820 143.200,156.000 142.840,156.000 142.400 C 156.000 141.960,156.152 141.600,156.337 141.600 C 156.522 141.600,157.013 140.970,157.428 140.200 C 157.843 139.430,158.321 138.800,158.491 138.800 C 158.661 138.800,158.800 138.440,158.800 138.000 C 158.800 137.560,158.980 137.200,159.200 137.200 C 159.420 137.200,159.600 136.922,159.600 136.583 C 159.600 136.244,159.960 135.580,160.400 135.108 C 160.840 134.636,161.200 134.013,161.200 133.725 C 161.200 133.436,161.380 133.200,161.600 133.200 C 161.820 133.200,162.000 132.855,162.000 132.433 C 162.000 132.012,162.212 131.596,162.471 131.510 C 165.315 130.562,122.180 129.790,116.323 130.684 M48.300 175.489 C 49.015 175.578,50.185 175.578,50.900 175.489 C 51.615 175.401,51.030 175.328,49.600 175.328 C 48.170 175.328,47.585 175.401,48.300 175.489 M58.100 175.491 C 58.925 175.578,60.275 175.578,61.100 175.491 C 61.925 175.405,61.250 175.334,59.600 175.334 C 57.950 175.334,57.275 175.405,58.100 175.491 M27.907 176.290 C 28.626 176.379,29.706 176.377,30.307 176.286 C 30.908 176.195,30.320 176.122,29.000 176.124 C 27.680 176.126,27.188 176.201,27.907 176.290 M119.352 201.500 C 118.758 202.545,117.688 204.390,116.976 205.600 C 116.264 206.810,115.326 208.430,114.892 209.200 C 114.458 209.970,113.156 212.220,112.000 214.200 C 110.844 216.180,109.583 218.340,109.199 219.000 C 108.815 219.660,106.930 222.900,105.011 226.200 C 103.091 229.500,101.389 232.380,101.229 232.600 C 100.592 233.475,98.777 236.800,98.936 236.800 C 99.030 236.800,99.884 235.606,100.834 234.147 C 101.785 232.688,102.751 231.286,102.981 231.030 C 103.212 230.775,103.599 230.214,103.843 229.783 C 104.247 229.069,104.810 228.990,110.215 228.889 C 113.477 228.828,116.363 228.597,116.629 228.376 C 116.927 228.128,120.762 227.989,126.583 228.014 C 133.334 228.043,136.215 227.920,136.621 227.582 C 137.211 227.093,137.012 226.222,136.397 226.602 C 136.206 226.720,136.132 226.363,136.233 225.808 C 136.333 225.254,136.232 224.800,136.008 224.800 C 135.784 224.800,135.600 224.530,135.600 224.200 C 135.600 223.870,135.420 223.600,135.200 223.600 C 134.980 223.600,134.800 223.330,134.800 223.000 C 134.800 222.670,134.620 222.400,134.400 222.400 C 134.180 222.400,134.000 222.117,134.000 221.771 C 134.000 221.426,133.728 220.871,133.396 220.539 C 133.064 220.207,132.895 219.770,133.020 219.568 C 133.145 219.365,133.057 219.200,132.824 219.200 C 132.591 219.200,132.400 218.964,132.400 218.675 C 132.400 218.387,132.040 217.764,131.600 217.292 C 131.160 216.820,130.800 216.145,130.800 215.793 C 130.800 215.441,130.620 215.264,130.400 215.400 C 130.173 215.540,130.000 215.204,130.000 214.624 C 130.000 214.061,129.820 213.600,129.600 213.600 C 129.380 213.600,129.200 213.280,129.200 212.888 C 129.200 212.497,128.840 211.917,128.400 211.600 C 127.960 211.283,127.600 210.871,127.600 210.684 C 127.600 210.497,127.070 209.574,126.423 208.633 C 125.776 207.693,125.126 206.443,124.979 205.858 C 124.832 205.272,124.551 204.694,124.356 204.573 C 124.160 204.452,124.000 204.081,124.000 203.748 C 124.000 203.415,123.728 202.871,123.396 202.539 C 123.064 202.207,122.895 201.770,123.020 201.568 C 123.145 201.365,123.078 201.200,122.870 201.200 C 122.663 201.200,122.399 200.840,122.284 200.400 C 121.899 198.928,120.522 199.444,119.352 201.500 M261.870 225.410 C 261.721 225.845,261.491 226.470,261.358 226.800 C 261.226 227.130,261.419 226.990,261.788 226.490 C 262.158 225.989,262.388 225.364,262.300 225.100 C 262.210 224.831,262.022 224.967,261.870 225.410 M255.479 238.820 C 255.355 239.294,255.063 239.562,254.829 239.418 C 254.595 239.273,254.194 239.615,253.937 240.177 C 253.681 240.740,253.310 241.200,253.112 241.200 C 252.915 241.200,252.844 241.348,252.956 241.529 C 253.068 241.709,252.808 242.158,252.380 242.525 C 251.951 242.892,251.206 244.094,250.725 245.196 C 250.244 246.298,249.614 247.200,249.325 247.200 C 249.036 247.200,248.800 247.434,248.800 247.720 C 248.800 248.456,247.859 250.393,247.500 250.397 C 247.335 250.399,247.200 250.760,247.200 251.200 C 247.200 251.640,247.042 252.000,246.849 252.000 C 246.655 252.000,246.273 252.540,246.000 253.200 C 245.727 253.860,245.345 254.400,245.151 254.400 C 244.958 254.400,244.800 254.678,244.800 255.017 C 244.800 255.356,244.440 256.020,244.000 256.492 C 243.560 256.964,243.200 257.587,243.200 257.875 C 243.200 258.164,243.034 258.400,242.832 258.400 C 242.629 258.400,242.345 258.940,242.200 259.600 C 242.055 260.260,241.815 260.800,241.666 260.800 C 241.517 260.800,241.136 261.385,240.820 262.100 C 240.503 262.815,239.920 263.749,239.522 264.175 C 237.383 266.472,237.731 266.501,262.482 266.135 C 278.561 265.896,283.399 265.729,279.400 265.549 C 276.320 265.411,273.416 265.276,272.946 265.249 C 272.395 265.217,271.865 264.722,271.453 263.855 C 271.102 263.115,270.541 262.283,270.207 262.006 C 269.873 261.729,269.600 261.276,269.600 261.000 C 269.600 260.724,269.321 260.266,268.980 259.984 C 268.639 259.701,268.010 258.700,267.581 257.759 C 267.153 256.818,266.621 255.937,266.400 255.800 C 266.179 255.663,265.639 254.763,265.200 253.800 C 264.761 252.837,264.221 251.937,264.000 251.800 C 263.779 251.663,263.239 250.763,262.800 249.800 C 262.361 248.837,261.821 247.937,261.600 247.800 C 261.379 247.663,260.827 246.797,260.374 245.876 C 259.179 243.446,258.613 242.499,257.864 241.671 C 257.499 241.267,257.200 240.821,257.200 240.678 C 257.200 239.639,255.691 238.010,255.479 238.820 M158.800 265.812 C 158.800 266.358,162.095 272.263,168.392 283.000 C 170.390 286.408,170.977 287.419,172.747 290.500 C 178.505 300.527,181.020 304.654,181.736 305.252 C 182.539 305.922,183.738 305.971,198.600 305.941 C 212.294 305.913,228.359 305.477,223.400 305.268 L 221.800 305.200 221.911 285.995 C 221.987 272.989,221.885 266.533,221.597 265.995 C 221.012 264.901,158.800 264.721,158.800 265.812 " stroke="none" fill="#776af8" fill-rule="evenodd"></path><path id="path4" d="M99.945 28.780 C 99.648 29.451,99.269 30.000,99.102 30.000 C 98.936 30.000,98.845 30.143,98.900 30.319 C 99.043 30.776,97.230 34.217,96.346 35.166 C 95.936 35.606,95.600 36.216,95.600 36.521 C 95.600 36.826,95.247 37.395,94.816 37.786 C 94.385 38.176,94.054 38.609,94.080 38.748 C 94.189 39.309,93.191 41.200,92.786 41.200 C 92.548 41.200,92.463 41.378,92.597 41.595 C 92.731 41.812,92.472 42.386,92.020 42.870 C 91.569 43.355,91.200 43.987,91.200 44.275 C 91.200 44.564,91.020 44.800,90.800 44.800 C 90.580 44.800,90.400 45.160,90.400 45.600 C 90.400 46.040,90.220 46.400,90.000 46.400 C 89.780 46.400,89.600 46.940,89.600 47.600 C 89.600 48.260,89.780 48.800,90.000 48.800 C 90.220 48.800,90.400 49.160,90.400 49.600 C 90.400 50.040,90.535 50.401,90.700 50.403 C 91.059 50.407,92.000 52.344,92.000 53.080 C 92.000 53.366,92.168 53.600,92.373 53.600 C 92.578 53.600,92.872 54.005,93.027 54.500 C 93.181 54.995,93.449 55.492,93.622 55.604 C 93.795 55.716,93.995 56.072,94.068 56.394 C 94.141 56.717,94.427 57.225,94.704 57.523 C 94.981 57.821,95.088 58.258,94.942 58.494 C 94.785 58.749,94.864 58.807,95.138 58.638 C 95.412 58.469,95.600 58.607,95.600 58.976 C 95.600 59.319,95.780 59.600,96.000 59.600 C 96.220 59.600,96.400 59.945,96.400 60.367 C 96.400 60.788,96.567 61.193,96.770 61.267 C 96.974 61.340,97.199 61.666,97.270 61.990 C 97.342 62.315,97.627 62.825,97.904 63.123 C 98.181 63.421,98.288 63.858,98.142 64.094 C 97.985 64.349,98.064 64.407,98.338 64.238 C 98.612 64.069,98.800 64.207,98.800 64.576 C 98.800 64.919,98.980 65.200,99.200 65.200 C 99.420 65.200,99.600 65.545,99.600 65.967 C 99.600 66.388,99.735 66.793,99.900 66.867 C 100.065 66.940,100.633 67.855,101.163 68.900 C 101.692 69.945,102.277 70.800,102.463 70.800 C 102.648 70.800,102.800 71.083,102.800 71.429 C 102.800 71.774,103.072 72.329,103.404 72.661 C 103.736 72.993,103.905 73.430,103.780 73.632 C 103.655 73.835,103.743 74.000,103.976 74.000 C 104.209 74.000,104.400 74.270,104.400 74.600 C 104.400 74.930,104.580 75.200,104.800 75.200 C 105.020 75.200,105.200 75.481,105.200 75.824 C 105.200 76.167,105.380 76.336,105.600 76.200 C 105.820 76.064,106.000 76.246,106.000 76.605 C 106.000 76.964,106.272 77.529,106.604 77.861 C 106.936 78.193,107.105 78.630,106.980 78.832 C 106.855 79.035,106.922 79.200,107.130 79.200 C 107.337 79.200,107.606 79.578,107.726 80.040 C 107.850 80.511,108.137 80.763,108.380 80.613 C 108.618 80.465,108.719 80.193,108.604 80.007 C 108.489 79.821,108.538 79.608,108.712 79.534 C 108.887 79.460,109.529 78.368,110.140 77.108 C 110.751 75.847,111.408 74.719,111.600 74.600 C 111.792 74.481,112.449 73.353,113.060 72.092 C 113.671 70.832,114.312 69.740,114.485 69.667 C 114.658 69.593,114.800 69.188,114.800 68.767 C 114.800 68.345,114.980 68.000,115.200 68.000 C 115.420 68.000,115.600 67.640,115.600 67.200 C 115.600 66.760,115.780 66.400,116.000 66.400 C 116.220 66.400,116.400 66.080,116.400 65.688 C 116.400 65.297,116.760 64.717,117.200 64.400 C 117.640 64.083,118.000 63.503,118.000 63.112 C 118.000 62.720,118.180 62.400,118.400 62.400 C 118.620 62.400,118.800 62.055,118.800 61.633 C 118.800 61.212,118.942 60.807,119.115 60.733 C 119.288 60.660,119.929 59.568,120.540 58.308 C 121.151 57.047,121.820 55.911,122.027 55.784 C 122.233 55.656,122.772 54.707,123.225 53.676 C 124.777 50.137,126.554 46.600,127.122 45.919 C 127.913 44.970,129.600 41.575,129.600 40.932 C 129.600 40.639,129.816 40.400,130.080 40.400 C 130.435 40.400,130.443 40.283,130.111 39.951 C 129.864 39.704,129.751 39.273,129.859 38.992 C 129.966 38.711,129.862 38.362,129.627 38.217 C 129.392 38.072,129.200 37.670,129.200 37.323 C 129.200 36.977,128.812 36.358,128.339 35.947 C 127.865 35.536,127.623 35.200,127.801 35.200 C 127.979 35.200,127.863 34.885,127.545 34.500 C 127.226 34.115,126.718 33.305,126.415 32.700 C 126.112 32.095,125.715 31.600,125.532 31.600 C 125.350 31.600,125.200 31.249,125.200 30.820 C 125.200 30.391,124.886 29.864,124.503 29.650 C 124.120 29.435,123.805 28.931,123.803 28.530 C 123.800 27.843,123.115 27.793,112.142 27.680 L 100.485 27.560 99.945 28.780 M111.693 88.000 C 111.968 88.440,112.335 88.800,112.510 88.800 C 112.685 88.800,112.635 88.440,112.400 88.000 C 112.165 87.560,111.797 87.200,111.583 87.200 C 111.367 87.200,111.416 87.557,111.693 88.000 M69.570 92.372 C 64.370 92.562,63.225 92.716,62.641 93.300 C 62.257 93.685,62.074 94.000,62.233 94.000 C 62.393 94.000,62.198 94.360,61.800 94.800 C 61.402 95.240,61.198 95.600,61.347 95.600 C 61.590 95.600,60.530 97.503,60.009 98.000 C 59.498 98.488,58.400 100.783,58.400 101.362 C 58.400 101.713,58.220 102.000,58.000 102.000 C 57.780 102.000,57.600 102.278,57.600 102.617 C 57.600 102.956,57.240 103.620,56.800 104.092 C 56.360 104.564,56.000 105.187,56.000 105.475 C 56.000 105.764,55.820 106.000,55.600 106.000 C 55.380 106.000,55.200 106.278,55.200 106.617 C 55.200 106.956,54.840 107.620,54.400 108.092 C 53.960 108.564,53.376 109.456,53.103 110.075 C 52.829 110.694,52.469 111.200,52.302 111.200 C 52.136 111.200,52.000 111.560,52.000 112.000 C 52.000 112.440,51.855 112.800,51.679 112.800 C 51.502 112.800,50.917 113.697,50.379 114.794 C 49.840 115.890,49.265 116.790,49.100 116.794 C 48.935 116.797,48.800 117.160,48.800 117.600 C 48.800 118.040,48.620 118.400,48.400 118.400 C 48.180 118.400,48.000 118.681,48.000 119.024 C 48.000 119.367,47.820 119.536,47.600 119.400 C 47.380 119.264,47.200 119.436,47.200 119.782 C 47.200 120.457,46.495 121.846,45.726 122.687 C 45.466 122.972,45.138 123.564,44.999 124.002 C 44.860 124.441,44.618 124.800,44.461 124.800 C 44.304 124.800,43.831 125.689,43.410 126.775 C 42.988 127.861,42.533 128.682,42.398 128.599 C 42.264 128.516,42.112 129.157,42.061 130.024 L 41.968 131.600 49.407 131.600 C 54.265 131.600,56.761 131.461,56.600 131.200 C 56.437 130.936,61.036 130.791,70.076 130.775 C 78.681 130.759,83.464 130.614,82.900 130.388 C 82.405 130.189,82.000 129.967,82.000 129.895 C 82.000 129.565,85.543 122.750,86.004 122.196 C 86.479 121.623,88.209 118.320,93.439 108.000 C 94.498 105.910,95.688 103.909,96.083 103.553 C 96.477 103.197,96.800 102.612,96.800 102.253 C 96.800 101.894,96.980 101.600,97.200 101.600 C 97.420 101.600,97.600 101.240,97.600 100.800 C 97.600 100.360,97.780 100.000,98.000 100.000 C 98.220 100.000,98.400 99.640,98.400 99.200 C 98.400 98.760,98.580 98.400,98.800 98.400 C 99.020 98.400,99.200 98.055,99.200 97.633 C 99.200 97.212,99.335 96.807,99.500 96.733 C 100.235 96.407,101.620 93.060,101.195 92.635 C 100.712 92.151,80.260 91.981,69.570 92.372 M336.900 96.998 C 336.625 97.311,336.400 97.778,336.400 98.036 C 336.400 98.295,336.028 98.829,335.574 99.223 C 335.119 99.617,334.772 100.049,334.802 100.182 C 334.899 100.615,333.814 102.800,333.502 102.800 C 333.336 102.800,333.200 103.160,333.200 103.600 C 333.200 104.040,333.020 104.400,332.800 104.400 C 332.580 104.400,332.400 104.681,332.400 105.024 C 332.400 105.367,332.216 105.533,331.990 105.394 C 331.765 105.255,331.625 105.289,331.679 105.470 C 331.821 105.940,330.665 108.400,330.302 108.400 C 330.136 108.400,330.000 108.717,330.000 109.104 C 330.000 109.491,329.633 110.037,329.184 110.317 C 328.736 110.597,328.464 110.980,328.580 111.168 C 328.696 111.356,328.523 111.732,328.196 112.004 C 327.868 112.276,327.600 112.731,327.600 113.016 C 327.600 113.300,327.465 113.593,327.300 113.667 C 326.779 113.898,325.203 117.070,325.474 117.341 C 325.617 117.483,325.523 117.600,325.267 117.600 C 325.010 117.600,324.800 117.878,324.800 118.217 C 324.800 118.556,324.440 119.220,324.000 119.692 C 323.560 120.164,323.200 120.787,323.200 121.075 C 323.200 121.364,323.020 121.600,322.800 121.600 C 322.580 121.600,322.400 121.878,322.400 122.217 C 322.400 122.556,322.040 123.220,321.600 123.692 C 321.160 124.164,320.800 124.787,320.800 125.075 C 320.800 125.364,320.620 125.600,320.400 125.600 C 320.180 125.600,320.000 125.971,320.000 126.424 C 320.000 126.877,319.820 127.136,319.600 127.000 C 319.366 126.855,319.200 127.270,319.200 128.000 C 319.200 128.841,319.050 129.154,318.738 128.962 C 318.446 128.781,318.385 128.852,318.573 129.156 C 318.736 129.419,318.651 129.897,318.385 130.218 C 318.045 130.628,318.035 130.800,318.351 130.800 C 318.598 130.800,318.800 131.030,318.800 131.312 C 318.800 131.593,319.160 132.083,319.600 132.400 C 320.040 132.717,320.400 133.297,320.400 133.688 C 320.400 134.080,320.580 134.400,320.800 134.400 C 321.020 134.400,321.200 134.720,321.200 135.112 C 321.200 135.503,321.560 136.083,322.000 136.400 C 322.440 136.717,322.800 137.297,322.800 137.688 C 322.800 138.080,322.980 138.400,323.200 138.400 C 323.420 138.400,323.600 138.741,323.600 139.157 C 323.600 139.574,323.861 140.015,324.181 140.137 C 324.500 140.260,325.142 141.134,325.606 142.080 C 326.766 144.442,327.368 145.473,328.068 146.297 C 328.397 146.684,328.971 147.667,329.344 148.483 C 329.716 149.299,330.197 150.075,330.412 150.207 C 330.626 150.340,331.161 151.237,331.600 152.200 C 332.039 153.163,332.579 154.063,332.800 154.200 C 333.021 154.337,333.561 155.237,334.000 156.200 C 334.439 157.163,334.979 158.063,335.200 158.200 C 335.421 158.337,335.953 159.218,336.381 160.159 C 336.810 161.100,337.439 162.101,337.780 162.384 C 338.121 162.666,338.400 163.124,338.400 163.400 C 338.400 163.676,338.689 164.142,339.042 164.435 C 339.798 165.062,340.567 166.773,340.437 167.540 C 340.380 167.881,340.541 167.970,340.873 167.781 C 341.304 167.537,341.306 167.583,340.883 168.038 C 340.443 168.511,340.304 168.505,339.946 167.997 C 339.599 167.506,339.567 167.530,339.762 168.133 C 339.893 168.536,340.000 168.941,340.000 169.033 C 340.000 169.813,341.195 168.931,341.400 168.000 C 341.545 167.340,341.840 166.800,342.055 166.800 C 342.271 166.800,342.336 166.620,342.200 166.400 C 342.064 166.180,342.278 165.997,342.676 165.994 C 343.251 165.989,343.285 165.915,342.841 165.634 C 342.390 165.348,342.448 165.177,343.141 164.744 C 343.614 164.449,344.000 163.891,344.000 163.504 C 344.000 163.117,344.180 162.800,344.400 162.800 C 344.620 162.800,344.800 162.440,344.800 162.000 C 344.800 161.560,344.960 161.200,345.156 161.200 C 345.352 161.200,345.886 160.404,346.343 159.431 C 346.800 158.459,347.360 157.548,347.587 157.408 C 347.814 157.268,348.000 156.793,348.000 156.353 C 348.000 155.913,348.167 155.656,348.372 155.783 C 348.576 155.909,348.969 155.389,349.245 154.628 C 349.520 153.866,349.897 153.336,350.083 153.451 C 350.268 153.566,350.375 153.511,350.321 153.330 C 350.179 152.860,351.335 150.400,351.698 150.400 C 351.864 150.400,352.000 150.130,352.000 149.800 C 352.000 149.470,352.180 149.200,352.400 149.200 C 352.620 149.200,352.800 148.829,352.800 148.376 C 352.800 147.923,352.980 147.664,353.200 147.800 C 353.420 147.936,353.600 147.764,353.600 147.418 C 353.600 146.692,354.299 145.384,355.286 144.260 C 355.664 143.830,355.877 143.325,355.761 143.137 C 355.644 142.948,355.830 142.687,356.172 142.555 C 356.515 142.424,356.705 142.170,356.594 141.990 C 356.483 141.811,356.622 141.425,356.903 141.132 C 357.184 140.840,357.753 139.835,358.168 138.900 C 358.582 137.965,359.074 137.200,359.261 137.200 C 359.447 137.200,359.600 136.928,359.600 136.595 C 359.600 136.262,359.825 135.608,360.100 135.142 C 360.500 134.465,360.500 134.259,360.100 134.114 C 359.825 134.015,359.600 133.588,359.600 133.167 C 359.600 132.745,359.420 132.400,359.200 132.400 C 358.980 132.400,358.800 132.106,358.800 131.747 C 358.800 131.388,358.423 130.767,357.963 130.368 C 357.503 129.969,357.244 129.453,357.387 129.221 C 357.530 128.990,357.457 128.800,357.224 128.800 C 356.991 128.800,356.800 128.522,356.800 128.183 C 356.800 127.844,356.440 127.180,356.000 126.708 C 355.560 126.236,355.200 125.613,355.200 125.325 C 355.200 125.036,355.020 124.800,354.800 124.800 C 354.580 124.800,354.400 124.440,354.400 124.000 C 354.400 123.560,354.265 123.199,354.100 123.197 C 353.763 123.193,352.800 121.275,352.800 120.609 C 352.800 120.371,352.440 119.917,352.000 119.600 C 351.560 119.283,351.200 118.703,351.200 118.312 C 351.200 117.920,351.064 117.600,350.898 117.600 C 350.586 117.600,349.501 115.415,349.598 114.982 C 349.628 114.849,349.326 114.436,348.926 114.065 C 347.992 113.198,347.200 111.784,347.200 110.982 C 347.200 110.636,347.020 110.464,346.800 110.600 C 346.580 110.736,346.400 110.601,346.400 110.299 C 346.400 109.998,346.040 109.364,345.600 108.892 C 345.160 108.420,344.800 107.756,344.800 107.417 C 344.800 107.078,344.620 106.800,344.400 106.800 C 344.180 106.800,344.000 106.440,344.000 106.000 C 344.000 105.560,343.820 105.200,343.600 105.200 C 343.380 105.200,343.200 104.964,343.200 104.675 C 343.200 104.387,342.840 103.764,342.400 103.292 C 341.960 102.820,341.600 102.263,341.600 102.054 C 341.600 99.530,338.041 95.702,336.900 96.998 M316.800 132.357 C 316.800 132.627,316.620 132.736,316.400 132.600 C 316.180 132.464,316.000 132.723,316.000 133.176 C 316.000 133.629,316.210 134.000,316.467 134.000 C 316.723 134.000,316.815 133.882,316.670 133.737 C 316.525 133.592,316.611 133.228,316.860 132.927 C 317.110 132.627,317.198 132.265,317.057 132.124 C 316.916 131.982,316.800 132.087,316.800 132.357 M53.700 175.487 C 54.305 175.578,55.295 175.578,55.900 175.487 C 56.505 175.395,56.010 175.320,54.800 175.320 C 53.590 175.320,53.095 175.395,53.700 175.487 M345.400 179.481 C 347.762 179.642,349.200 180.284,349.200 181.179 C 349.200 181.534,349.560 182.083,350.000 182.400 C 350.440 182.717,350.800 183.297,350.800 183.688 C 350.800 184.080,350.980 184.400,351.200 184.400 C 351.420 184.400,351.600 184.694,351.600 185.053 C 351.600 185.412,351.924 185.997,352.320 186.353 C 352.717 186.709,353.351 187.667,353.731 188.483 C 354.111 189.299,354.597 190.075,354.812 190.207 C 355.026 190.340,355.561 191.237,356.000 192.200 C 356.439 193.163,356.979 194.063,357.200 194.200 C 357.421 194.337,357.973 195.203,358.426 196.124 C 359.569 198.447,360.172 199.479,360.868 200.297 C 361.197 200.684,361.771 201.667,362.144 202.483 C 362.516 203.299,362.997 204.075,363.212 204.207 C 363.426 204.340,363.961 205.237,364.400 206.200 C 364.839 207.163,365.379 208.063,365.600 208.200 C 365.821 208.337,366.353 209.218,366.781 210.159 C 367.210 211.100,367.839 212.101,368.180 212.384 C 368.521 212.666,368.800 213.087,368.800 213.317 C 368.800 213.548,369.095 214.063,369.455 214.461 C 369.816 214.860,370.491 215.946,370.955 216.876 C 371.492 217.950,372.164 218.668,372.800 218.843 C 374.428 219.294,382.482 219.257,382.200 218.800 C 382.045 218.549,382.937 218.400,384.600 218.400 C 386.108 218.400,387.149 218.242,387.020 218.032 C 386.895 217.830,387.064 217.393,387.396 217.061 C 387.728 216.729,388.000 216.257,388.000 216.012 C 388.000 215.517,389.630 213.075,390.100 212.867 C 390.265 212.793,390.400 212.388,390.400 211.967 C 390.400 211.545,390.580 211.200,390.800 211.200 C 391.020 211.200,391.200 210.853,391.200 210.429 C 391.200 210.004,391.470 209.387,391.800 209.057 C 392.130 208.727,392.400 208.164,392.400 207.805 C 392.400 207.446,392.580 207.264,392.800 207.400 C 393.020 207.536,393.200 207.367,393.200 207.024 C 393.200 206.681,393.380 206.400,393.600 206.400 C 393.820 206.400,394.000 206.029,394.000 205.576 C 394.000 205.123,394.180 204.864,394.400 205.000 C 394.620 205.136,394.800 204.916,394.800 204.512 C 394.800 204.107,395.160 203.517,395.600 203.200 C 396.040 202.883,396.400 202.303,396.400 201.912 C 396.400 201.520,396.580 201.200,396.800 201.200 C 397.020 201.200,397.200 200.480,397.200 199.600 C 397.200 198.720,397.020 198.000,396.800 198.000 C 396.580 198.000,396.400 197.680,396.400 197.288 C 396.400 196.897,396.040 196.317,395.600 196.000 C 395.160 195.683,394.800 195.103,394.800 194.712 C 394.800 194.320,394.664 194.000,394.498 194.000 C 394.331 194.000,393.971 193.494,393.697 192.875 C 393.424 192.256,392.840 191.364,392.400 190.892 C 391.960 190.420,391.600 189.827,391.600 189.576 C 391.600 189.072,389.560 185.122,389.132 184.796 C 388.985 184.684,388.805 184.328,388.732 184.006 C 388.659 183.683,388.373 183.175,388.096 182.877 C 387.819 182.579,387.695 182.170,387.820 181.968 C 387.945 181.765,387.857 181.600,387.624 181.600 C 387.391 181.600,387.200 181.422,387.200 181.205 C 387.200 179.174,387.439 179.195,364.611 179.272 C 352.945 179.312,344.300 179.406,345.400 179.481 M198.349 334.728 C 199.779 335.857,198.930 336.000,190.801 336.000 C 186.575 336.000,183.612 336.157,183.533 336.386 C 183.452 336.621,177.985 336.817,169.551 336.886 C 157.746 336.983,155.733 336.916,155.919 336.434 C 156.057 336.074,155.966 335.974,155.668 336.158 C 154.974 336.587,155.101 337.600,155.849 337.600 C 156.378 337.600,156.407 337.710,156.004 338.195 C 155.605 338.675,155.628 338.836,156.119 339.024 C 156.454 339.153,156.837 339.695,156.972 340.229 C 157.106 340.763,157.402 341.200,157.631 341.200 C 157.860 341.200,157.924 341.400,157.772 341.645 C 157.621 341.889,157.662 342.204,157.864 342.345 C 158.065 342.485,158.763 343.675,159.415 344.988 C 160.067 346.302,160.831 347.626,161.113 347.930 C 161.772 348.640,163.287 351.600,162.993 351.600 C 162.870 351.600,163.136 351.994,163.584 352.475 C 164.033 352.956,164.624 353.856,164.897 354.475 C 165.171 355.094,165.531 355.600,165.698 355.600 C 165.864 355.600,166.000 355.920,166.000 356.312 C 166.000 356.703,166.360 357.283,166.800 357.600 C 167.240 357.917,167.600 358.497,167.600 358.888 C 167.600 359.280,167.780 359.600,168.000 359.600 C 168.220 359.600,168.400 359.920,168.400 360.312 C 168.400 360.703,168.760 361.283,169.200 361.600 C 169.640 361.917,170.000 362.497,170.000 362.888 C 170.000 363.280,170.135 363.603,170.300 363.606 C 170.465 363.610,171.040 364.510,171.579 365.606 C 172.117 366.703,172.702 367.600,172.879 367.600 C 173.055 367.600,173.200 367.883,173.200 368.229 C 173.200 369.860,173.974 370.000,182.995 370.000 C 188.661 370.000,191.562 370.138,191.400 370.400 C 191.237 370.664,195.847 370.800,204.930 370.800 L 218.707 370.800 218.914 369.713 C 219.059 368.955,218.892 368.427,218.361 367.966 C 217.943 367.603,217.600 367.012,217.600 366.653 C 217.600 366.294,217.420 366.000,217.200 366.000 C 216.980 366.000,216.800 365.629,216.800 365.176 C 216.800 364.723,216.650 364.445,216.468 364.558 C 216.285 364.671,215.891 364.142,215.593 363.382 C 215.295 362.622,214.904 362.000,214.725 362.000 C 214.546 362.000,214.400 361.629,214.400 361.176 C 214.400 360.723,214.220 360.464,214.000 360.600 C 213.780 360.736,213.600 360.477,213.600 360.024 C 213.600 359.571,213.420 359.200,213.200 359.200 C 212.980 359.200,212.800 358.964,212.800 358.675 C 212.800 358.387,212.440 357.764,212.000 357.292 C 211.560 356.820,211.200 356.156,211.200 355.817 C 211.200 355.478,211.020 355.200,210.800 355.200 C 210.580 355.200,210.400 354.880,210.400 354.488 C 210.400 354.097,210.040 353.517,209.600 353.200 C 209.160 352.883,208.800 352.303,208.800 351.912 C 208.800 351.520,208.620 351.200,208.400 351.200 C 208.180 351.200,208.000 350.840,208.000 350.400 C 208.000 349.960,207.820 349.600,207.600 349.600 C 207.380 349.600,207.219 349.465,207.243 349.300 C 207.352 348.547,206.652 347.200,206.153 347.200 C 205.849 347.200,205.600 347.042,205.600 346.849 C 205.600 346.656,205.346 345.891,205.036 345.149 C 204.726 344.407,204.468 343.651,204.463 343.470 C 204.457 343.288,204.124 342.838,203.724 342.470 C 203.323 342.101,202.732 341.290,202.411 340.666 C 202.090 340.042,201.434 339.107,200.953 338.587 C 200.194 337.768,200.165 337.626,200.739 337.509 C 201.197 337.415,201.006 337.196,200.120 336.798 C 199.388 336.469,199.025 336.108,199.273 335.955 C 199.814 335.621,198.879 334.251,198.000 334.090 C 197.658 334.027,197.808 334.302,198.349 334.728 M141.084 337.280 C 140.818 337.449,136.606 337.591,131.724 337.594 C 126.244 337.598,122.753 337.753,122.600 338.000 C 122.125 338.768,97.752 338.518,96.553 337.732 C 95.581 337.095,95.540 337.100,95.667 337.832 C 95.751 338.318,95.598 338.557,95.251 338.484 C 94.902 338.410,94.788 338.591,94.938 338.984 C 95.068 339.323,94.990 339.600,94.764 339.600 C 94.538 339.600,94.464 339.780,94.600 340.000 C 94.736 340.220,94.657 340.400,94.424 340.400 C 94.191 340.400,94.000 340.681,94.000 341.024 C 94.000 341.393,93.812 341.531,93.538 341.362 C 93.238 341.176,93.186 341.253,93.389 341.583 C 93.572 341.878,93.473 342.231,93.151 342.430 C 92.848 342.618,92.585 342.912,92.567 343.085 C 92.462 344.105,91.861 345.600,91.557 345.600 C 91.360 345.600,91.200 345.960,91.200 346.400 C 91.200 346.840,91.020 347.200,90.800 347.200 C 90.580 347.200,90.400 347.481,90.400 347.824 C 90.400 348.193,90.212 348.331,89.938 348.162 C 89.682 348.004,89.584 348.050,89.718 348.267 C 89.850 348.482,89.709 349.139,89.403 349.729 C 88.929 350.643,88.929 350.957,89.403 351.871 C 89.709 352.461,89.888 353.058,89.801 353.198 C 89.714 353.339,89.993 353.707,90.421 354.015 C 90.850 354.324,91.200 354.807,91.200 355.088 C 91.200 355.370,91.380 355.600,91.600 355.600 C 91.820 355.600,92.001 355.915,92.001 356.300 C 92.002 356.685,92.400 357.630,92.885 358.400 C 94.296 360.641,94.800 361.653,94.800 362.246 C 94.800 362.551,94.980 362.800,95.200 362.800 C 95.420 362.800,95.600 363.078,95.600 363.417 C 95.600 363.756,95.960 364.420,96.400 364.892 C 96.840 365.364,97.200 365.987,97.200 366.275 C 97.200 366.564,97.336 366.800,97.502 366.800 C 97.851 366.800,99.023 369.251,98.889 369.700 C 98.763 370.123,122.881 370.063,123.551 369.639 C 123.854 369.447,123.979 369.089,123.828 368.845 C 123.676 368.600,123.722 368.400,123.928 368.400 C 124.134 368.400,124.527 367.860,124.800 367.200 C 125.073 366.540,125.455 366.000,125.649 366.000 C 125.842 366.000,126.000 365.640,126.000 365.200 C 126.000 364.760,126.180 364.400,126.400 364.400 C 126.620 364.400,126.800 364.122,126.800 363.783 C 126.800 363.444,127.160 362.780,127.600 362.308 C 128.040 361.836,128.400 361.213,128.400 360.925 C 128.400 360.636,128.580 360.400,128.800 360.400 C 129.020 360.400,129.200 360.055,129.200 359.633 C 129.200 359.212,129.342 358.807,129.514 358.733 C 130.090 358.489,131.600 356.086,131.600 355.415 C 131.600 355.051,131.780 354.864,132.000 355.000 C 132.220 355.136,132.400 354.943,132.400 354.571 C 132.400 354.198,132.788 353.558,133.261 353.147 C 133.735 352.736,134.008 352.400,133.868 352.400 C 133.497 352.400,135.150 349.339,135.822 348.782 C 136.135 348.522,136.305 348.170,136.200 348.000 C 136.095 347.830,136.277 347.468,136.604 347.196 C 136.932 346.924,137.200 346.482,137.200 346.213 C 137.200 345.944,137.560 345.398,138.000 345.000 C 138.440 344.602,138.800 343.944,138.800 343.538 C 138.800 343.132,138.999 342.800,139.243 342.800 C 139.486 342.800,139.582 342.530,139.455 342.200 C 139.306 341.811,139.467 341.598,139.913 341.594 C 140.492 341.589,140.508 341.529,140.011 341.215 C 139.507 340.896,139.521 340.805,140.109 340.580 C 140.486 340.435,140.707 340.174,140.600 340.000 C 140.493 339.826,140.674 339.581,141.002 339.454 C 141.331 339.328,141.600 338.887,141.600 338.474 C 141.600 338.060,142.005 337.531,142.500 337.298 L 143.400 336.873 142.484 336.923 C 141.980 336.950,141.350 337.111,141.084 337.280 " stroke="none" fill="#ceaffc" fill-rule="evenodd"></path></g></svg>